<svg xmlns="http://www.w3.org/2000/svg" viewBox="0 0 1440 900" preserveAspectRatio="xMaxYMid meet"><ellipse cx="1024.8" cy="-0.1" rx="7.5" ry="3.8" fill="rgba(255,45,70,0.77)" transform="rotate(107.1 1024.8 -0.1)"/><ellipse cx="1019.0" cy="18.4" rx="7.5" ry="3.8" fill="rgba(255,45,70,0.78)" transform="rotate(107.8 1019.0 18.4)"/><ellipse cx="1013.0" cy="36.8" rx="7.5" ry="3.8" fill="rgba(255,45,70,0.79)" transform="rotate(108.4 1013.0 36.8)"/><ellipse cx="1006.8" cy="55.2" rx="7.5" ry="3.8" fill="rgba(255,45,70,0.80)" transform="rotate(109.1 1006.8 55.2)"/><ellipse cx="1000.4" cy="73.5" rx="7.5" ry="3.8" fill="rgba(255,45,70,0.81)" transform="rotate(109.7 1000.4 73.5)"/><ellipse cx="993.7" cy="91.7" rx="7.5" ry="3.8" fill="rgba(255,45,70,0.82)" transform="rotate(110.4 993.7 91.7)"/><ellipse cx="986.9" cy="109.8" rx="7.5" ry="3.8" fill="rgba(255,45,70,0.83)" transform="rotate(111.0 986.9 109.8)"/><ellipse cx="979.8" cy="127.8" rx="7.5" ry="3.8" fill="rgba(255,45,70,0.84)" transform="rotate(111.7 979.8 127.8)"/><ellipse cx="972.6" cy="145.8" rx="7.5" ry="3.8" fill="rgba(255,45,70,0.84)" transform="rotate(112.3 972.6 145.8)"/><ellipse cx="965.1" cy="163.7" rx="7.5" ry="3.8" fill="rgba(255,45,70,0.83)" transform="rotate(113.0 965.1 163.7)"/><ellipse cx="957.4" cy="181.5" rx="7.5" ry="3.8" fill="rgba(255,45,70,0.82)" transform="rotate(113.6 957.4 181.5)"/><ellipse cx="949.6" cy="199.2" rx="7.5" ry="3.8" fill="rgba(255,45,70,0.81)" transform="rotate(114.3 949.6 199.2)"/><ellipse cx="941.5" cy="216.8" rx="7.5" ry="3.8" fill="rgba(255,45,70,0.80)" transform="rotate(114.9 941.5 216.8)"/><ellipse cx="933.2" cy="234.3" rx="7.5" ry="3.8" fill="rgba(255,45,70,0.79)" transform="rotate(115.6 933.2 234.3)"/><ellipse cx="924.8" cy="251.8" rx="7.5" ry="3.8" fill="rgba(255,45,70,0.78)" transform="rotate(116.2 924.8 251.8)"/><ellipse cx="916.1" cy="269.1" rx="7.5" ry="3.8" fill="rgba(255,45,70,0.77)" transform="rotate(116.9 916.1 269.1)"/><ellipse cx="907.2" cy="286.3" rx="7.5" ry="3.8" fill="rgba(255,45,70,0.76)" transform="rotate(117.6 907.2 286.3)"/><ellipse cx="898.2" cy="303.4" rx="7.5" ry="3.8" fill="rgba(255,45,70,0.75)" transform="rotate(118.2 898.2 303.4)"/><ellipse cx="888.9" cy="320.5" rx="7.5" ry="3.8" fill="rgba(255,45,70,0.74)" transform="rotate(118.9 888.9 320.5)"/><ellipse cx="879.5" cy="337.4" rx="7.5" ry="3.8" fill="rgba(255,45,70,0.73)" transform="rotate(119.5 879.5 337.4)"/><ellipse cx="869.8" cy="354.2" rx="7.5" ry="3.8" fill="rgba(255,45,70,0.72)" transform="rotate(120.2 869.8 354.2)"/><ellipse cx="860.0" cy="370.9" rx="7.5" ry="3.8" fill="rgba(255,45,70,0.71)" transform="rotate(120.8 860.0 370.9)"/><ellipse cx="850.0" cy="387.5" rx="7.5" ry="3.8" fill="rgba(255,45,70,0.70)" transform="rotate(121.5 850.0 387.5)"/><ellipse cx="839.8" cy="403.9" rx="7.5" ry="3.8" fill="rgba(255,45,70,0.69)" transform="rotate(122.1 839.8 403.9)"/><ellipse cx="829.4" cy="420.3" rx="7.5" ry="3.8" fill="rgba(255,45,70,0.68)" transform="rotate(122.8 829.4 420.3)"/><ellipse cx="818.8" cy="436.5" rx="7.5" ry="3.8" fill="rgba(255,45,70,0.67)" transform="rotate(123.4 818.8 436.5)"/><ellipse cx="808.0" cy="452.6" rx="7.5" ry="3.8" fill="rgba(255,45,70,0.66)" transform="rotate(124.1 808.0 452.6)"/><ellipse cx="797.1" cy="468.6" rx="7.5" ry="3.8" fill="rgba(255,45,70,0.65)" transform="rotate(124.7 797.1 468.6)"/><ellipse cx="785.9" cy="484.5" rx="7.5" ry="3.8" fill="rgba(255,45,70,0.64)" transform="rotate(125.4 785.9 484.5)"/><ellipse cx="774.6" cy="500.2" rx="7.5" ry="3.8" fill="rgba(255,45,70,0.63)" transform="rotate(126.0 774.6 500.2)"/><ellipse cx="763.1" cy="515.8" rx="7.5" ry="3.8" fill="rgba(255,45,70,0.62)" transform="rotate(126.7 763.1 515.8)"/><ellipse cx="751.5" cy="531.3" rx="7.5" ry="3.8" fill="rgba(255,45,70,0.61)" transform="rotate(127.3 751.5 531.3)"/><ellipse cx="739.6" cy="546.6" rx="7.5" ry="3.8" fill="rgba(255,45,70,0.55)" transform="rotate(128.0 739.6 546.6)"/><ellipse cx="1049.7" cy="7.7" rx="7.5" ry="3.8" fill="rgba(255,45,70,0.75)" transform="rotate(107.1 1049.7 7.7)"/><ellipse cx="1043.8" cy="26.6" rx="7.5" ry="3.8" fill="rgba(255,45,70,0.76)" transform="rotate(107.8 1043.8 26.6)"/><ellipse cx="1037.6" cy="45.5" rx="7.5" ry="3.8" fill="rgba(255,45,70,0.77)" transform="rotate(108.4 1037.6 45.5)"/><ellipse cx="1031.3" cy="64.3" rx="7.5" ry="3.8" fill="rgba(255,45,70,0.78)" transform="rotate(109.1 1031.3 64.3)"/><ellipse cx="1024.7" cy="83.0" rx="7.5" ry="3.8" fill="rgba(255,45,70,0.79)" transform="rotate(109.7 1024.7 83.0)"/><ellipse cx="1017.9" cy="101.6" rx="7.5" ry="3.8" fill="rgba(255,45,70,0.80)" transform="rotate(110.4 1017.9 101.6)"/><ellipse cx="1010.8" cy="120.1" rx="7.5" ry="3.8" fill="rgba(255,45,70,0.81)" transform="rotate(111.1 1010.8 120.1)"/><ellipse cx="1003.6" cy="138.6" rx="7.5" ry="3.8" fill="rgba(255,45,70,0.82)" transform="rotate(111.7 1003.6 138.6)"/><ellipse cx="996.2" cy="157.0" rx="7.5" ry="3.8" fill="rgba(255,45,70,0.82)" transform="rotate(112.4 996.2 157.0)"/><ellipse cx="988.5" cy="175.3" rx="7.5" ry="3.8" fill="rgba(255,45,70,0.81)" transform="rotate(113.0 988.5 175.3)"/><ellipse cx="980.6" cy="193.5" rx="7.5" ry="3.8" fill="rgba(255,45,70,0.80)" transform="rotate(113.7 980.6 193.5)"/><ellipse cx="972.6" cy="211.6" rx="7.5" ry="3.8" fill="rgba(255,45,70,0.79)" transform="rotate(114.3 972.6 211.6)"/><ellipse cx="964.3" cy="229.6" rx="7.5" ry="3.8" fill="rgba(255,45,70,0.78)" transform="rotate(115.0 964.3 229.6)"/><ellipse cx="955.8" cy="247.6" rx="7.5" ry="3.8" fill="rgba(255,45,70,0.77)" transform="rotate(115.7 955.8 247.6)"/><ellipse cx="947.1" cy="265.4" rx="7.5" ry="3.8" fill="rgba(255,45,70,0.76)" transform="rotate(116.3 947.1 265.4)"/><ellipse cx="938.2" cy="283.1" rx="7.5" ry="3.8" fill="rgba(255,45,70,0.75)" transform="rotate(117.0 938.2 283.1)"/><ellipse cx="929.1" cy="300.8" rx="7.5" ry="3.8" fill="rgba(255,45,70,0.74)" transform="rotate(117.6 929.1 300.8)"/><ellipse cx="919.8" cy="318.3" rx="7.5" ry="3.8" fill="rgba(255,45,70,0.73)" transform="rotate(118.3 919.8 318.3)"/><ellipse cx="910.3" cy="335.7" rx="7.5" ry="3.8" fill="rgba(255,45,70,0.72)" transform="rotate(119.0 910.3 335.7)"/><ellipse cx="900.6" cy="353.0" rx="7.5" ry="3.8" fill="rgba(255,45,70,0.71)" transform="rotate(119.6 900.6 353.0)"/><ellipse cx="890.7" cy="370.2" rx="7.5" ry="3.8" fill="rgba(255,45,70,0.70)" transform="rotate(120.3 890.7 370.2)"/><ellipse cx="880.6" cy="387.2" rx="7.5" ry="3.8" fill="rgba(255,45,70,0.69)" transform="rotate(120.9 880.6 387.2)"/><ellipse cx="870.3" cy="404.2" rx="7.5" ry="3.8" fill="rgba(255,45,70,0.68)" transform="rotate(121.6 870.3 404.2)"/><ellipse cx="859.8" cy="421.0" rx="7.5" ry="3.8" fill="rgba(255,45,70,0.67)" transform="rotate(122.2 859.8 421.0)"/><ellipse cx="849.1" cy="437.7" rx="7.5" ry="3.8" fill="rgba(255,45,70,0.66)" transform="rotate(122.9 849.1 437.7)"/><ellipse cx="838.3" cy="454.3" rx="7.5" ry="3.8" fill="rgba(255,45,70,0.65)" transform="rotate(123.6 838.3 454.3)"/><ellipse cx="827.2" cy="470.8" rx="7.5" ry="3.8" fill="rgba(255,45,70,0.64)" transform="rotate(124.2 827.2 470.8)"/><ellipse cx="816.0" cy="487.1" rx="7.5" ry="3.8" fill="rgba(255,45,70,0.63)" transform="rotate(124.9 816.0 487.1)"/><ellipse cx="804.5" cy="503.3" rx="7.5" ry="3.8" fill="rgba(255,45,70,0.62)" transform="rotate(125.5 804.5 503.3)"/><ellipse cx="792.9" cy="519.4" rx="7.5" ry="3.8" fill="rgba(255,45,70,0.61)" transform="rotate(126.2 792.9 519.4)"/><ellipse cx="781.1" cy="535.3" rx="7.5" ry="3.8" fill="rgba(255,45,70,0.60)" transform="rotate(126.9 781.1 535.3)"/><ellipse cx="769.1" cy="551.1" rx="7.5" ry="3.8" fill="rgba(255,45,70,0.57)" transform="rotate(127.5 769.1 551.1)"/><ellipse cx="756.9" cy="566.8" rx="7.5" ry="3.8" fill="rgba(255,45,70,0.54)" transform="rotate(128.2 756.9 566.8)"/><ellipse cx="1080.5" cy="-4.0" rx="7.4" ry="3.8" fill="rgba(255,45,70,0.72)" transform="rotate(106.4 1080.5 -4.0)"/><ellipse cx="1074.6" cy="15.5" rx="7.4" ry="3.8" fill="rgba(255,45,70,0.73)" transform="rotate(107.1 1074.6 15.5)"/><ellipse cx="1068.5" cy="34.8" rx="7.4" ry="3.8" fill="rgba(255,45,70,0.74)" transform="rotate(107.8 1068.5 34.8)"/><ellipse cx="1062.2" cy="54.1" rx="7.4" ry="3.8" fill="rgba(255,45,70,0.75)" transform="rotate(108.4 1062.2 54.1)"/><ellipse cx="1055.7" cy="73.4" rx="7.4" ry="3.8" fill="rgba(255,45,70,0.76)" transform="rotate(109.1 1055.7 73.4)"/><ellipse cx="1049.0" cy="92.5" rx="7.4" ry="3.8" fill="rgba(255,45,70,0.77)" transform="rotate(109.8 1049.0 92.5)"/><ellipse cx="1042.0" cy="111.6" rx="7.4" ry="3.8" fill="rgba(255,45,70,0.78)" transform="rotate(110.4 1042.0 111.6)"/><ellipse cx="1034.8" cy="130.5" rx="7.4" ry="3.8" fill="rgba(255,45,70,0.79)" transform="rotate(111.1 1034.8 130.5)"/><ellipse cx="1027.4" cy="149.4" rx="7.4" ry="3.8" fill="rgba(255,45,70,0.80)" transform="rotate(111.8 1027.4 149.4)"/><ellipse cx="1019.7" cy="168.2" rx="7.4" ry="3.8" fill="rgba(255,45,70,0.80)" transform="rotate(112.4 1019.7 168.2)"/><ellipse cx="1011.9" cy="187.0" rx="7.4" ry="3.8" fill="rgba(255,45,70,0.79)" transform="rotate(113.1 1011.9 187.0)"/><ellipse cx="1003.8" cy="205.6" rx="7.4" ry="3.8" fill="rgba(255,45,70,0.78)" transform="rotate(113.7 1003.8 205.6)"/><ellipse cx="995.6" cy="224.1" rx="7.4" ry="3.8" fill="rgba(255,45,70,0.77)" transform="rotate(114.4 995.6 224.1)"/><ellipse cx="987.1" cy="242.5" rx="7.4" ry="3.8" fill="rgba(255,45,70,0.76)" transform="rotate(115.1 987.1 242.5)"/><ellipse cx="978.3" cy="260.9" rx="7.4" ry="3.8" fill="rgba(255,45,70,0.75)" transform="rotate(115.7 978.3 260.9)"/><ellipse cx="969.4" cy="279.1" rx="7.4" ry="3.8" fill="rgba(255,45,70,0.74)" transform="rotate(116.4 969.4 279.1)"/><ellipse cx="960.3" cy="297.2" rx="7.4" ry="3.8" fill="rgba(255,45,70,0.73)" transform="rotate(117.1 960.3 297.2)"/><ellipse cx="951.0" cy="315.3" rx="7.4" ry="3.8" fill="rgba(255,45,70,0.72)" transform="rotate(117.7 951.0 315.3)"/><ellipse cx="941.4" cy="333.2" rx="7.4" ry="3.8" fill="rgba(255,45,70,0.71)" transform="rotate(118.4 941.4 333.2)"/><ellipse cx="931.7" cy="351.0" rx="7.4" ry="3.8" fill="rgba(255,45,70,0.70)" transform="rotate(119.1 931.7 351.0)"/><ellipse cx="921.7" cy="368.7" rx="7.4" ry="3.8" fill="rgba(255,45,70,0.69)" transform="rotate(119.7 921.7 368.7)"/><ellipse cx="911.5" cy="386.2" rx="7.4" ry="3.8" fill="rgba(255,45,70,0.68)" transform="rotate(120.4 911.5 386.2)"/><ellipse cx="901.2" cy="403.7" rx="7.4" ry="3.8" fill="rgba(255,45,70,0.67)" transform="rotate(121.0 901.2 403.7)"/><ellipse cx="890.6" cy="421.0" rx="7.4" ry="3.8" fill="rgba(255,45,70,0.66)" transform="rotate(121.7 890.6 421.0)"/><ellipse cx="879.8" cy="438.2" rx="7.4" ry="3.8" fill="rgba(255,45,70,0.65)" transform="rotate(122.4 879.8 438.2)"/><ellipse cx="868.9" cy="455.3" rx="7.4" ry="3.8" fill="rgba(255,45,70,0.64)" transform="rotate(123.0 868.9 455.3)"/><ellipse cx="857.7" cy="472.2" rx="7.4" ry="3.8" fill="rgba(255,45,70,0.63)" transform="rotate(123.7 857.7 472.2)"/><ellipse cx="846.3" cy="489.1" rx="7.4" ry="3.8" fill="rgba(255,45,70,0.62)" transform="rotate(124.4 846.3 489.1)"/><ellipse cx="834.8" cy="505.7" rx="7.4" ry="3.8" fill="rgba(255,45,70,0.61)" transform="rotate(125.0 834.8 505.7)"/><ellipse cx="823.0" cy="522.3" rx="7.4" ry="3.8" fill="rgba(255,45,70,0.60)" transform="rotate(125.7 823.0 522.3)"/><ellipse cx="811.1" cy="538.7" rx="7.4" ry="3.8" fill="rgba(255,45,70,0.59)" transform="rotate(126.4 811.1 538.7)"/><ellipse cx="799.0" cy="555.0" rx="7.4" ry="3.8" fill="rgba(255,45,70,0.56)" transform="rotate(127.0 799.0 555.0)"/><ellipse cx="786.7" cy="571.1" rx="7.4" ry="3.8" fill="rgba(255,45,70,0.53)" transform="rotate(127.7 786.7 571.1)"/><ellipse cx="774.2" cy="587.1" rx="7.4" ry="3.8" fill="rgba(255,45,70,0.50)" transform="rotate(128.3 774.2 587.1)"/><ellipse cx="1105.5" cy="3.4" rx="7.4" ry="3.8" fill="rgba(255,45,70,0.70)" transform="rotate(106.4 1105.5 3.4)"/><ellipse cx="1099.5" cy="23.3" rx="7.4" ry="3.8" fill="rgba(255,45,70,0.71)" transform="rotate(107.1 1099.5 23.3)"/><ellipse cx="1093.3" cy="43.1" rx="7.4" ry="3.8" fill="rgba(255,45,70,0.72)" transform="rotate(107.8 1093.3 43.1)"/><ellipse cx="1086.9" cy="62.8" rx="7.4" ry="3.8" fill="rgba(255,45,70,0.73)" transform="rotate(108.5 1086.9 62.8)"/><ellipse cx="1080.2" cy="82.5" rx="7.4" ry="3.8" fill="rgba(255,45,70,0.74)" transform="rotate(109.1 1080.2 82.5)"/><ellipse cx="1073.2" cy="102.0" rx="7.4" ry="3.8" fill="rgba(255,45,70,0.75)" transform="rotate(109.8 1073.2 102.0)"/><ellipse cx="1066.1" cy="121.5" rx="7.4" ry="3.8" fill="rgba(255,45,70,0.76)" transform="rotate(110.5 1066.1 121.5)"/><ellipse cx="1058.7" cy="140.9" rx="7.4" ry="3.8" fill="rgba(255,45,70,0.77)" transform="rotate(111.1 1058.7 140.9)"/><ellipse cx="1051.1" cy="160.3" rx="7.4" ry="3.8" fill="rgba(255,45,70,0.78)" transform="rotate(111.8 1051.1 160.3)"/><ellipse cx="1043.3" cy="179.5" rx="7.4" ry="3.8" fill="rgba(255,45,70,0.78)" transform="rotate(112.5 1043.3 179.5)"/><ellipse cx="1035.3" cy="198.6" rx="7.4" ry="3.8" fill="rgba(255,45,70,0.77)" transform="rotate(113.1 1035.3 198.6)"/><ellipse cx="1027.0" cy="217.7" rx="7.4" ry="3.8" fill="rgba(255,45,70,0.76)" transform="rotate(113.8 1027.0 217.7)"/><ellipse cx="1018.5" cy="236.6" rx="7.4" ry="3.8" fill="rgba(255,45,70,0.75)" transform="rotate(114.5 1018.5 236.6)"/><ellipse cx="1009.8" cy="255.5" rx="7.4" ry="3.8" fill="rgba(255,45,70,0.74)" transform="rotate(115.1 1009.8 255.5)"/><ellipse cx="1000.9" cy="274.2" rx="7.4" ry="3.8" fill="rgba(255,45,70,0.73)" transform="rotate(115.8 1000.9 274.2)"/><ellipse cx="991.7" cy="292.9" rx="7.4" ry="3.8" fill="rgba(255,45,70,0.72)" transform="rotate(116.5 991.7 292.9)"/><ellipse cx="982.3" cy="311.4" rx="7.4" ry="3.8" fill="rgba(255,45,70,0.71)" transform="rotate(117.1 982.3 311.4)"/><ellipse cx="972.8" cy="329.8" rx="7.4" ry="3.8" fill="rgba(255,45,70,0.70)" transform="rotate(117.8 972.8 329.8)"/><ellipse cx="963.0" cy="348.1" rx="7.4" ry="3.8" fill="rgba(255,45,70,0.69)" transform="rotate(118.5 963.0 348.1)"/><ellipse cx="953.0" cy="366.3" rx="7.4" ry="3.8" fill="rgba(255,45,70,0.68)" transform="rotate(119.2 953.0 366.3)"/><ellipse cx="942.7" cy="384.4" rx="7.4" ry="3.8" fill="rgba(255,45,70,0.67)" transform="rotate(119.8 942.7 384.4)"/><ellipse cx="932.3" cy="402.4" rx="7.4" ry="3.8" fill="rgba(255,45,70,0.66)" transform="rotate(120.5 932.3 402.4)"/><ellipse cx="921.7" cy="420.2" rx="7.4" ry="3.8" fill="rgba(255,45,70,0.66)" transform="rotate(121.2 921.7 420.2)"/><ellipse cx="910.8" cy="437.9" rx="7.4" ry="3.8" fill="rgba(255,45,70,0.65)" transform="rotate(121.8 910.8 437.9)"/><ellipse cx="899.8" cy="455.5" rx="7.4" ry="3.8" fill="rgba(255,45,70,0.64)" transform="rotate(122.5 899.8 455.5)"/><ellipse cx="888.5" cy="472.9" rx="7.4" ry="3.8" fill="rgba(255,45,70,0.63)" transform="rotate(123.2 888.5 472.9)"/><ellipse cx="877.0" cy="490.2" rx="7.4" ry="3.8" fill="rgba(255,45,70,0.62)" transform="rotate(123.8 877.0 490.2)"/><ellipse cx="865.4" cy="507.4" rx="7.4" ry="3.8" fill="rgba(255,45,70,0.61)" transform="rotate(124.5 865.4 507.4)"/><ellipse cx="853.5" cy="524.5" rx="7.4" ry="3.8" fill="rgba(255,45,70,0.60)" transform="rotate(125.2 853.5 524.5)"/><ellipse cx="841.5" cy="541.4" rx="7.4" ry="3.8" fill="rgba(255,45,70,0.59)" transform="rotate(125.8 841.5 541.4)"/><ellipse cx="829.2" cy="558.1" rx="7.4" ry="3.8" fill="rgba(255,45,70,0.55)" transform="rotate(126.5 829.2 558.1)"/><ellipse cx="816.7" cy="574.7" rx="7.4" ry="3.8" fill="rgba(255,45,70,0.52)" transform="rotate(127.2 816.7 574.7)"/><ellipse cx="804.1" cy="591.2" rx="7.4" ry="3.8" fill="rgba(255,45,70,0.49)" transform="rotate(127.9 804.1 591.2)"/><ellipse cx="791.3" cy="607.5" rx="7.4" ry="3.8" fill="rgba(255,45,70,0.46)" transform="rotate(128.5 791.3 607.5)"/><ellipse cx="1136.5" cy="-9.7" rx="7.4" ry="3.7" fill="rgba(255,45,70,0.67)" transform="rotate(105.8 1136.5 -9.7)"/><ellipse cx="1130.6" cy="10.7" rx="7.4" ry="3.7" fill="rgba(255,45,70,0.68)" transform="rotate(106.4 1130.6 10.7)"/><ellipse cx="1124.4" cy="31.0" rx="7.4" ry="3.7" fill="rgba(255,45,70,0.69)" transform="rotate(107.1 1124.4 31.0)"/><ellipse cx="1118.1" cy="51.3" rx="7.4" ry="3.7" fill="rgba(255,45,70,0.70)" transform="rotate(107.8 1118.1 51.3)"/><ellipse cx="1111.5" cy="71.5" rx="7.4" ry="3.7" fill="rgba(255,45,70,0.71)" transform="rotate(108.5 1111.5 71.5)"/><ellipse cx="1104.6" cy="91.6" rx="7.4" ry="3.7" fill="rgba(255,45,70,0.72)" transform="rotate(109.1 1104.6 91.6)"/><ellipse cx="1097.5" cy="111.6" rx="7.4" ry="3.7" fill="rgba(255,45,70,0.73)" transform="rotate(109.8 1097.5 111.6)"/><ellipse cx="1090.2" cy="131.5" rx="7.4" ry="3.7" fill="rgba(255,45,70,0.74)" transform="rotate(110.5 1090.2 131.5)"/><ellipse cx="1082.7" cy="151.4" rx="7.4" ry="3.7" fill="rgba(255,45,70,0.75)" transform="rotate(111.2 1082.7 151.4)"/><ellipse cx="1074.9" cy="171.2" rx="7.4" ry="3.7" fill="rgba(255,45,70,0.76)" transform="rotate(111.8 1074.9 171.2)"/><ellipse cx="1066.9" cy="190.8" rx="7.4" ry="3.7" fill="rgba(255,45,70,0.76)" transform="rotate(112.5 1066.9 190.8)"/><ellipse cx="1058.6" cy="210.4" rx="7.4" ry="3.7" fill="rgba(255,45,70,0.75)" transform="rotate(113.2 1058.6 210.4)"/><ellipse cx="1050.1" cy="229.9" rx="7.4" ry="3.7" fill="rgba(255,45,70,0.74)" transform="rotate(113.9 1050.1 229.9)"/><ellipse cx="1041.4" cy="249.2" rx="7.4" ry="3.7" fill="rgba(255,45,70,0.73)" transform="rotate(114.5 1041.4 249.2)"/><ellipse cx="1032.5" cy="268.5" rx="7.4" ry="3.7" fill="rgba(255,45,70,0.72)" transform="rotate(115.2 1032.5 268.5)"/><ellipse cx="1023.4" cy="287.7" rx="7.4" ry="3.7" fill="rgba(255,45,70,0.71)" transform="rotate(115.9 1023.4 287.7)"/><ellipse cx="1014.0" cy="306.7" rx="7.4" ry="3.7" fill="rgba(255,45,70,0.70)" transform="rotate(116.6 1014.0 306.7)"/><ellipse cx="1004.4" cy="325.6" rx="7.4" ry="3.7" fill="rgba(255,45,70,0.69)" transform="rotate(117.2 1004.4 325.6)"/><ellipse cx="994.5" cy="344.5" rx="7.4" ry="3.7" fill="rgba(255,45,70,0.68)" transform="rotate(117.9 994.5 344.5)"/><ellipse cx="984.5" cy="363.2" rx="7.4" ry="3.7" fill="rgba(255,45,70,0.67)" transform="rotate(118.6 984.5 363.2)"/><ellipse cx="974.2" cy="381.8" rx="7.4" ry="3.7" fill="rgba(255,45,70,0.66)" transform="rotate(119.3 974.2 381.8)"/><ellipse cx="963.7" cy="400.2" rx="7.4" ry="3.7" fill="rgba(255,45,70,0.66)" transform="rotate(119.9 963.7 400.2)"/><ellipse cx="953.0" cy="418.6" rx="7.4" ry="3.7" fill="rgba(255,45,70,0.65)" transform="rotate(120.6 953.0 418.6)"/><ellipse cx="942.1" cy="436.8" rx="7.4" ry="3.7" fill="rgba(255,45,70,0.64)" transform="rotate(121.3 942.1 436.8)"/><ellipse cx="931.0" cy="454.9" rx="7.4" ry="3.7" fill="rgba(255,45,70,0.63)" transform="rotate(122.0 931.0 454.9)"/><ellipse cx="919.6" cy="472.8" rx="7.4" ry="3.7" fill="rgba(255,45,70,0.62)" transform="rotate(122.6 919.6 472.8)"/><ellipse cx="908.1" cy="490.6" rx="7.4" ry="3.7" fill="rgba(255,45,70,0.61)" transform="rotate(123.3 908.1 490.6)"/><ellipse cx="896.3" cy="508.3" rx="7.4" ry="3.7" fill="rgba(255,45,70,0.60)" transform="rotate(124.0 896.3 508.3)"/><ellipse cx="884.3" cy="525.9" rx="7.4" ry="3.7" fill="rgba(255,45,70,0.59)" transform="rotate(124.6 884.3 525.9)"/><ellipse cx="872.2" cy="543.3" rx="7.4" ry="3.7" fill="rgba(255,45,70,0.58)" transform="rotate(125.3 872.2 543.3)"/><ellipse cx="859.8" cy="560.5" rx="7.4" ry="3.7" fill="rgba(255,45,70,0.54)" transform="rotate(126.0 859.8 560.5)"/><ellipse cx="847.2" cy="577.6" rx="7.4" ry="3.7" fill="rgba(255,45,70,0.51)" transform="rotate(126.7 847.2 577.6)"/><ellipse cx="834.4" cy="594.6" rx="7.4" ry="3.7" fill="rgba(255,45,70,0.48)" transform="rotate(127.3 834.4 594.6)"/><ellipse cx="821.4" cy="611.4" rx="7.4" ry="3.7" fill="rgba(255,45,70,0.45)" transform="rotate(128.0 821.4 611.4)"/><ellipse cx="808.3" cy="628.0" rx="7.4" ry="3.7" fill="rgba(255,45,70,0.42)" transform="rotate(128.7 808.3 628.0)"/><ellipse cx="1161.6" cy="-2.8" rx="7.4" ry="3.7" fill="rgba(255,45,70,0.66)" transform="rotate(105.8 1161.6 -2.8)"/><ellipse cx="1155.6" cy="18.0" rx="7.4" ry="3.7" fill="rgba(255,45,70,0.66)" transform="rotate(106.4 1155.6 18.0)"/><ellipse cx="1149.3" cy="38.8" rx="7.4" ry="3.7" fill="rgba(255,45,70,0.67)" transform="rotate(107.1 1149.3 38.8)"/><ellipse cx="1142.8" cy="59.5" rx="7.4" ry="3.7" fill="rgba(255,45,70,0.68)" transform="rotate(107.8 1142.8 59.5)"/><ellipse cx="1136.1" cy="80.2" rx="7.4" ry="3.7" fill="rgba(255,45,70,0.69)" transform="rotate(108.5 1136.1 80.2)"/><ellipse cx="1129.1" cy="100.7" rx="7.4" ry="3.7" fill="rgba(255,45,70,0.70)" transform="rotate(109.2 1129.1 100.7)"/><ellipse cx="1121.8" cy="121.2" rx="7.4" ry="3.7" fill="rgba(255,45,70,0.71)" transform="rotate(109.8 1121.8 121.2)"/><ellipse cx="1114.3" cy="141.6" rx="7.4" ry="3.7" fill="rgba(255,45,70,0.72)" transform="rotate(110.5 1114.3 141.6)"/><ellipse cx="1106.6" cy="161.9" rx="7.4" ry="3.7" fill="rgba(255,45,70,0.73)" transform="rotate(111.2 1106.6 161.9)"/><ellipse cx="1098.6" cy="182.1" rx="7.4" ry="3.7" fill="rgba(255,45,70,0.74)" transform="rotate(111.9 1098.6 182.1)"/><ellipse cx="1090.4" cy="202.2" rx="7.4" ry="3.7" fill="rgba(255,45,70,0.74)" transform="rotate(112.6 1090.4 202.2)"/><ellipse cx="1082.0" cy="222.2" rx="7.4" ry="3.7" fill="rgba(255,45,70,0.73)" transform="rotate(113.2 1082.0 222.2)"/><ellipse cx="1073.3" cy="242.1" rx="7.4" ry="3.7" fill="rgba(255,45,70,0.72)" transform="rotate(113.9 1073.3 242.1)"/><ellipse cx="1064.3" cy="261.9" rx="7.4" ry="3.7" fill="rgba(255,45,70,0.71)" transform="rotate(114.6 1064.3 261.9)"/><ellipse cx="1055.2" cy="281.6" rx="7.4" ry="3.7" fill="rgba(255,45,70,0.70)" transform="rotate(115.3 1055.2 281.6)"/><ellipse cx="1045.8" cy="301.1" rx="7.4" ry="3.7" fill="rgba(255,45,70,0.69)" transform="rotate(116.0 1045.8 301.1)"/><ellipse cx="1036.2" cy="320.6" rx="7.4" ry="3.7" fill="rgba(255,45,70,0.68)" transform="rotate(116.6 1036.2 320.6)"/><ellipse cx="1026.3" cy="340.0" rx="7.4" ry="3.7" fill="rgba(255,45,70,0.67)" transform="rotate(117.3 1026.3 340.0)"/><ellipse cx="1016.3" cy="359.2" rx="7.4" ry="3.7" fill="rgba(255,45,70,0.66)" transform="rotate(118.0 1016.3 359.2)"/><ellipse cx="1006.0" cy="378.3" rx="7.4" ry="3.7" fill="rgba(255,45,70,0.66)" transform="rotate(118.7 1006.0 378.3)"/><ellipse cx="995.4" cy="397.3" rx="7.4" ry="3.7" fill="rgba(255,45,70,0.65)" transform="rotate(119.4 995.4 397.3)"/><ellipse cx="984.7" cy="416.2" rx="7.4" ry="3.7" fill="rgba(255,45,70,0.64)" transform="rotate(120.0 984.7 416.2)"/><ellipse cx="973.7" cy="434.9" rx="7.4" ry="3.7" fill="rgba(255,45,70,0.63)" transform="rotate(120.7 973.7 434.9)"/><ellipse cx="962.5" cy="453.5" rx="7.4" ry="3.7" fill="rgba(255,45,70,0.62)" transform="rotate(121.4 962.5 453.5)"/><ellipse cx="951.1" cy="472.0" rx="7.4" ry="3.7" fill="rgba(255,45,70,0.61)" transform="rotate(122.1 951.1 472.0)"/><ellipse cx="939.4" cy="490.3" rx="7.4" ry="3.7" fill="rgba(255,45,70,0.60)" transform="rotate(122.8 939.4 490.3)"/><ellipse cx="927.6" cy="508.5" rx="7.4" ry="3.7" fill="rgba(255,45,70,0.59)" transform="rotate(123.4 927.6 508.5)"/><ellipse cx="915.5" cy="526.5" rx="7.4" ry="3.7" fill="rgba(255,45,70,0.58)" transform="rotate(124.1 915.5 526.5)"/><ellipse cx="903.2" cy="544.4" rx="7.4" ry="3.7" fill="rgba(255,45,70,0.57)" transform="rotate(124.8 903.2 544.4)"/><ellipse cx="890.7" cy="562.2" rx="7.4" ry="3.7" fill="rgba(255,45,70,0.53)" transform="rotate(125.5 890.7 562.2)"/><ellipse cx="878.0" cy="579.8" rx="7.4" ry="3.7" fill="rgba(255,45,70,0.50)" transform="rotate(126.2 878.0 579.8)"/><ellipse cx="865.1" cy="597.3" rx="7.4" ry="3.7" fill="rgba(255,45,70,0.47)" transform="rotate(126.8 865.1 597.3)"/><ellipse cx="852.0" cy="614.6" rx="7.4" ry="3.7" fill="rgba(255,45,70,0.44)" transform="rotate(127.5 852.0 614.6)"/><ellipse cx="838.7" cy="631.7" rx="7.4" ry="3.7" fill="rgba(255,45,70,0.41)" transform="rotate(128.2 838.7 631.7)"/><ellipse cx="825.1" cy="648.7" rx="7.4" ry="3.7" fill="rgba(255,45,70,0.38)" transform="rotate(128.9 825.1 648.7)"/><ellipse cx="1186.8" cy="4.0" rx="7.3" ry="3.7" fill="rgba(255,45,70,0.64)" transform="rotate(105.8 1186.8 4.0)"/><ellipse cx="1180.6" cy="25.4" rx="7.3" ry="3.7" fill="rgba(255,45,70,0.64)" transform="rotate(106.4 1180.6 25.4)"/><ellipse cx="1174.2" cy="46.6" rx="7.3" ry="3.7" fill="rgba(255,45,70,0.65)" transform="rotate(107.1 1174.2 46.6)"/><ellipse cx="1167.6" cy="67.8" rx="7.3" ry="3.7" fill="rgba(255,45,70,0.66)" transform="rotate(107.8 1167.6 67.8)"/><ellipse cx="1160.7" cy="88.9" rx="7.3" ry="3.7" fill="rgba(255,45,70,0.67)" transform="rotate(108.5 1160.7 88.9)"/><ellipse cx="1153.5" cy="109.9" rx="7.3" ry="3.7" fill="rgba(255,45,70,0.68)" transform="rotate(109.2 1153.5 109.9)"/><ellipse cx="1146.1" cy="130.8" rx="7.3" ry="3.7" fill="rgba(255,45,70,0.69)" transform="rotate(109.9 1146.1 130.8)"/><ellipse cx="1138.4" cy="151.6" rx="7.3" ry="3.7" fill="rgba(255,45,70,0.70)" transform="rotate(110.5 1138.4 151.6)"/><ellipse cx="1130.5" cy="172.4" rx="7.3" ry="3.7" fill="rgba(255,45,70,0.71)" transform="rotate(111.2 1130.5 172.4)"/><ellipse cx="1122.3" cy="193.0" rx="7.3" ry="3.7" fill="rgba(255,45,70,0.72)" transform="rotate(111.9 1122.3 193.0)"/><ellipse cx="1113.9" cy="213.6" rx="7.3" ry="3.7" fill="rgba(255,45,70,0.72)" transform="rotate(112.6 1113.9 213.6)"/><ellipse cx="1105.3" cy="234.0" rx="7.3" ry="3.7" fill="rgba(255,45,70,0.71)" transform="rotate(113.3 1105.3 234.0)"/><ellipse cx="1096.4" cy="254.3" rx="7.3" ry="3.7" fill="rgba(255,45,70,0.70)" transform="rotate(114.0 1096.4 254.3)"/><ellipse cx="1087.2" cy="274.6" rx="7.3" ry="3.7" fill="rgba(255,45,70,0.69)" transform="rotate(114.7 1087.2 274.6)"/><ellipse cx="1077.8" cy="294.7" rx="7.3" ry="3.7" fill="rgba(255,45,70,0.68)" transform="rotate(115.3 1077.8 294.7)"/><ellipse cx="1068.2" cy="314.7" rx="7.3" ry="3.7" fill="rgba(255,45,70,0.67)" transform="rotate(116.0 1068.2 314.7)"/><ellipse cx="1058.4" cy="334.6" rx="7.3" ry="3.7" fill="rgba(255,45,70,0.66)" transform="rotate(116.7 1058.4 334.6)"/><ellipse cx="1048.3" cy="354.3" rx="7.3" ry="3.7" fill="rgba(255,45,70,0.65)" transform="rotate(117.4 1048.3 354.3)"/><ellipse cx="1037.9" cy="374.0" rx="7.3" ry="3.7" fill="rgba(255,45,70,0.64)" transform="rotate(118.1 1037.9 374.0)"/><ellipse cx="1027.4" cy="393.5" rx="7.3" ry="3.7" fill="rgba(255,45,70,0.64)" transform="rotate(118.8 1027.4 393.5)"/><ellipse cx="1016.6" cy="412.9" rx="7.3" ry="3.7" fill="rgba(255,45,70,0.63)" transform="rotate(119.5 1016.6 412.9)"/><ellipse cx="1005.5" cy="432.1" rx="7.3" ry="3.7" fill="rgba(255,45,70,0.62)" transform="rotate(120.1 1005.5 432.1)"/><ellipse cx="994.3" cy="451.3" rx="7.3" ry="3.7" fill="rgba(255,45,70,0.61)" transform="rotate(120.8 994.3 451.3)"/><ellipse cx="982.8" cy="470.3" rx="7.3" ry="3.7" fill="rgba(255,45,70,0.60)" transform="rotate(121.5 982.8 470.3)"/><ellipse cx="971.1" cy="489.1" rx="7.3" ry="3.7" fill="rgba(255,45,70,0.59)" transform="rotate(122.2 971.1 489.1)"/><ellipse cx="959.2" cy="507.8" rx="7.3" ry="3.7" fill="rgba(255,45,70,0.58)" transform="rotate(122.9 959.2 507.8)"/><ellipse cx="947.0" cy="526.4" rx="7.3" ry="3.7" fill="rgba(255,45,70,0.57)" transform="rotate(123.6 947.0 526.4)"/><ellipse cx="934.6" cy="544.8" rx="7.3" ry="3.7" fill="rgba(255,45,70,0.56)" transform="rotate(124.2 934.6 544.8)"/><ellipse cx="922.0" cy="563.1" rx="7.3" ry="3.7" fill="rgba(255,45,70,0.52)" transform="rotate(124.9 922.0 563.1)"/><ellipse cx="909.2" cy="581.2" rx="7.3" ry="3.7" fill="rgba(255,45,70,0.49)" transform="rotate(125.6 909.2 581.2)"/><ellipse cx="896.2" cy="599.2" rx="7.3" ry="3.7" fill="rgba(255,45,70,0.46)" transform="rotate(126.3 896.2 599.2)"/><ellipse cx="882.9" cy="617.0" rx="7.3" ry="3.7" fill="rgba(255,45,70,0.43)" transform="rotate(127.0 882.9 617.0)"/><ellipse cx="869.4" cy="634.6" rx="7.3" ry="3.7" fill="rgba(255,45,70,0.40)" transform="rotate(127.7 869.4 634.6)"/><ellipse cx="855.8" cy="652.1" rx="7.3" ry="3.7" fill="rgba(255,45,70,0.37)" transform="rotate(128.4 855.8 652.1)"/><ellipse cx="841.9" cy="669.4" rx="7.3" ry="3.7" fill="rgba(255,45,70,0.34)" transform="rotate(129.0 841.9 669.4)"/><ellipse cx="1212.0" cy="10.9" rx="7.3" ry="3.7" fill="rgba(255,45,70,0.62)" transform="rotate(105.7 1212.0 10.9)"/><ellipse cx="1205.7" cy="32.7" rx="7.3" ry="3.7" fill="rgba(255,45,70,0.63)" transform="rotate(106.4 1205.7 32.7)"/><ellipse cx="1199.1" cy="54.4" rx="7.3" ry="3.7" fill="rgba(255,45,70,0.63)" transform="rotate(107.1 1199.1 54.4)"/><ellipse cx="1192.3" cy="76.0" rx="7.3" ry="3.7" fill="rgba(255,45,70,0.64)" transform="rotate(107.8 1192.3 76.0)"/><ellipse cx="1185.2" cy="97.6" rx="7.3" ry="3.7" fill="rgba(255,45,70,0.65)" transform="rotate(108.5 1185.2 97.6)"/><ellipse cx="1177.9" cy="119.1" rx="7.3" ry="3.7" fill="rgba(255,45,70,0.66)" transform="rotate(109.2 1177.9 119.1)"/><ellipse cx="1170.3" cy="140.4" rx="7.3" ry="3.7" fill="rgba(255,45,70,0.67)" transform="rotate(109.9 1170.3 140.4)"/><ellipse cx="1162.5" cy="161.7" rx="7.3" ry="3.7" fill="rgba(255,45,70,0.68)" transform="rotate(110.6 1162.5 161.7)"/><ellipse cx="1154.4" cy="182.9" rx="7.3" ry="3.7" fill="rgba(255,45,70,0.69)" transform="rotate(111.3 1154.4 182.9)"/><ellipse cx="1146.0" cy="204.0" rx="7.3" ry="3.7" fill="rgba(255,45,70,0.69)" transform="rotate(112.0 1146.0 204.0)"/><ellipse cx="1137.4" cy="225.0" rx="7.3" ry="3.7" fill="rgba(255,45,70,0.69)" transform="rotate(112.6 1137.4 225.0)"/><ellipse cx="1128.6" cy="245.9" rx="7.3" ry="3.7" fill="rgba(255,45,70,0.69)" transform="rotate(113.3 1128.6 245.9)"/><ellipse cx="1119.4" cy="266.6" rx="7.3" ry="3.7" fill="rgba(255,45,70,0.68)" transform="rotate(114.0 1119.4 266.6)"/><ellipse cx="1110.1" cy="287.3" rx="7.3" ry="3.7" fill="rgba(255,45,70,0.67)" transform="rotate(114.7 1110.1 287.3)"/><ellipse cx="1100.5" cy="307.8" rx="7.3" ry="3.7" fill="rgba(255,45,70,0.66)" transform="rotate(115.4 1100.5 307.8)"/><ellipse cx="1090.6" cy="328.3" rx="7.3" ry="3.7" fill="rgba(255,45,70,0.65)" transform="rotate(116.1 1090.6 328.3)"/><ellipse cx="1080.5" cy="348.6" rx="7.3" ry="3.7" fill="rgba(255,45,70,0.64)" transform="rotate(116.8 1080.5 348.6)"/><ellipse cx="1070.2" cy="368.8" rx="7.3" ry="3.7" fill="rgba(255,45,70,0.63)" transform="rotate(117.5 1070.2 368.8)"/><ellipse cx="1059.6" cy="388.8" rx="7.3" ry="3.7" fill="rgba(255,45,70,0.63)" transform="rotate(118.2 1059.6 388.8)"/><ellipse cx="1048.8" cy="408.8" rx="7.3" ry="3.7" fill="rgba(255,45,70,0.62)" transform="rotate(118.9 1048.8 408.8)"/><ellipse cx="1037.7" cy="428.6" rx="7.3" ry="3.7" fill="rgba(255,45,70,0.61)" transform="rotate(119.6 1037.7 428.6)"/><ellipse cx="1026.4" cy="448.2" rx="7.3" ry="3.7" fill="rgba(255,45,70,0.60)" transform="rotate(120.2 1026.4 448.2)"/><ellipse cx="1014.8" cy="467.7" rx="7.3" ry="3.7" fill="rgba(255,45,70,0.59)" transform="rotate(120.9 1014.8 467.7)"/><ellipse cx="1003.1" cy="487.1" rx="7.3" ry="3.7" fill="rgba(255,45,70,0.58)" transform="rotate(121.6 1003.1 487.1)"/><ellipse cx="991.0" cy="506.4" rx="7.3" ry="3.7" fill="rgba(255,45,70,0.57)" transform="rotate(122.3 991.0 506.4)"/><ellipse cx="978.8" cy="525.5" rx="7.3" ry="3.7" fill="rgba(255,45,70,0.57)" transform="rotate(123.0 978.8 525.5)"/><ellipse cx="966.3" cy="544.4" rx="7.3" ry="3.7" fill="rgba(255,45,70,0.55)" transform="rotate(123.7 966.3 544.4)"/><ellipse cx="953.6" cy="563.2" rx="7.3" ry="3.7" fill="rgba(255,45,70,0.52)" transform="rotate(124.4 953.6 563.2)"/><ellipse cx="940.7" cy="581.8" rx="7.3" ry="3.7" fill="rgba(255,45,70,0.48)" transform="rotate(125.1 940.7 581.8)"/><ellipse cx="927.6" cy="600.3" rx="7.3" ry="3.7" fill="rgba(255,45,70,0.45)" transform="rotate(125.8 927.6 600.3)"/><ellipse cx="914.2" cy="618.7" rx="7.3" ry="3.7" fill="rgba(255,45,70,0.42)" transform="rotate(126.5 914.2 618.7)"/><ellipse cx="900.6" cy="636.8" rx="7.3" ry="3.7" fill="rgba(255,45,70,0.39)" transform="rotate(127.1 900.6 636.8)"/><ellipse cx="886.8" cy="654.8" rx="7.3" ry="3.7" fill="rgba(255,45,70,0.36)" transform="rotate(127.8 886.8 654.8)"/><ellipse cx="872.8" cy="672.6" rx="7.3" ry="3.7" fill="rgba(255,45,70,0.33)" transform="rotate(128.5 872.8 672.6)"/><ellipse cx="858.6" cy="690.3" rx="7.3" ry="3.7" fill="rgba(255,45,70,0.31)" transform="rotate(129.2 858.6 690.3)"/><ellipse cx="1243.3" cy="-4.6" rx="7.3" ry="3.7" fill="rgba(255,45,70,0.59)" transform="rotate(105.0 1243.3 -4.6)"/><ellipse cx="1237.1" cy="17.7" rx="7.3" ry="3.7" fill="rgba(255,45,70,0.60)" transform="rotate(105.7 1237.1 17.7)"/><ellipse cx="1230.7" cy="40.0" rx="7.3" ry="3.7" fill="rgba(255,45,70,0.61)" transform="rotate(106.4 1230.7 40.0)"/><ellipse cx="1224.0" cy="62.2" rx="7.3" ry="3.7" fill="rgba(255,45,70,0.61)" transform="rotate(107.1 1224.0 62.2)"/><ellipse cx="1217.1" cy="84.3" rx="7.3" ry="3.7" fill="rgba(255,45,70,0.62)" transform="rotate(107.8 1217.1 84.3)"/><ellipse cx="1209.8" cy="106.3" rx="7.3" ry="3.7" fill="rgba(255,45,70,0.63)" transform="rotate(108.5 1209.8 106.3)"/><ellipse cx="1202.3" cy="128.3" rx="7.3" ry="3.7" fill="rgba(255,45,70,0.64)" transform="rotate(109.2 1202.3 128.3)"/><ellipse cx="1194.6" cy="150.1" rx="7.3" ry="3.7" fill="rgba(255,45,70,0.65)" transform="rotate(109.9 1194.6 150.1)"/><ellipse cx="1186.6" cy="171.8" rx="7.3" ry="3.7" fill="rgba(255,45,70,0.66)" transform="rotate(110.6 1186.6 171.8)"/><ellipse cx="1178.3" cy="193.5" rx="7.3" ry="3.7" fill="rgba(255,45,70,0.66)" transform="rotate(111.3 1178.3 193.5)"/><ellipse cx="1169.7" cy="215.0" rx="7.3" ry="3.7" fill="rgba(255,45,70,0.67)" transform="rotate(112.0 1169.7 215.0)"/><ellipse cx="1160.9" cy="236.4" rx="7.3" ry="3.7" fill="rgba(255,45,70,0.67)" transform="rotate(112.7 1160.9 236.4)"/><ellipse cx="1151.8" cy="257.8" rx="7.3" ry="3.7" fill="rgba(255,45,70,0.66)" transform="rotate(113.4 1151.8 257.8)"/><ellipse cx="1142.5" cy="279.0" rx="7.3" ry="3.7" fill="rgba(255,45,70,0.66)" transform="rotate(114.1 1142.5 279.0)"/><ellipse cx="1132.9" cy="300.1" rx="7.3" ry="3.7" fill="rgba(255,45,70,0.65)" transform="rotate(114.8 1132.9 300.1)"/><ellipse cx="1123.1" cy="321.1" rx="7.3" ry="3.7" fill="rgba(255,45,70,0.64)" transform="rotate(115.5 1123.1 321.1)"/><ellipse cx="1113.0" cy="341.9" rx="7.3" ry="3.7" fill="rgba(255,45,70,0.63)" transform="rotate(116.2 1113.0 341.9)"/><ellipse cx="1102.6" cy="362.7" rx="7.3" ry="3.7" fill="rgba(255,45,70,0.62)" transform="rotate(116.9 1102.6 362.7)"/><ellipse cx="1092.0" cy="383.3" rx="7.3" ry="3.7" fill="rgba(255,45,70,0.61)" transform="rotate(117.6 1092.0 383.3)"/><ellipse cx="1081.2" cy="403.7" rx="7.3" ry="3.7" fill="rgba(255,45,70,0.61)" transform="rotate(118.3 1081.2 403.7)"/><ellipse cx="1070.1" cy="424.1" rx="7.3" ry="3.7" fill="rgba(255,45,70,0.60)" transform="rotate(119.0 1070.1 424.1)"/><ellipse cx="1058.7" cy="444.3" rx="7.3" ry="3.7" fill="rgba(255,45,70,0.59)" transform="rotate(119.7 1058.7 444.3)"/><ellipse cx="1047.2" cy="464.4" rx="7.3" ry="3.7" fill="rgba(255,45,70,0.58)" transform="rotate(120.3 1047.2 464.4)"/><ellipse cx="1035.3" cy="484.3" rx="7.3" ry="3.7" fill="rgba(255,45,70,0.57)" transform="rotate(121.0 1035.3 484.3)"/><ellipse cx="1023.3" cy="504.1" rx="7.3" ry="3.7" fill="rgba(255,45,70,0.56)" transform="rotate(121.7 1023.3 504.1)"/><ellipse cx="1010.9" cy="523.7" rx="7.3" ry="3.7" fill="rgba(255,45,70,0.56)" transform="rotate(122.4 1010.9 523.7)"/><ellipse cx="998.4" cy="543.2" rx="7.3" ry="3.7" fill="rgba(255,45,70,0.54)" transform="rotate(123.1 998.4 543.2)"/><ellipse cx="985.6" cy="562.5" rx="7.3" ry="3.7" fill="rgba(255,45,70,0.51)" transform="rotate(123.8 985.6 562.5)"/><ellipse cx="972.6" cy="581.7" rx="7.3" ry="3.7" fill="rgba(255,45,70,0.48)" transform="rotate(124.5 972.6 581.7)"/><ellipse cx="959.3" cy="600.7" rx="7.3" ry="3.7" fill="rgba(255,45,70,0.44)" transform="rotate(125.2 959.3 600.7)"/><ellipse cx="945.9" cy="619.6" rx="7.3" ry="3.7" fill="rgba(255,45,70,0.41)" transform="rotate(125.9 945.9 619.6)"/><ellipse cx="932.2" cy="638.2" rx="7.3" ry="3.7" fill="rgba(255,45,70,0.38)" transform="rotate(126.6 932.2 638.2)"/><ellipse cx="918.2" cy="656.8" rx="7.3" ry="3.7" fill="rgba(255,45,70,0.35)" transform="rotate(127.3 918.2 656.8)"/><ellipse cx="904.1" cy="675.1" rx="7.3" ry="3.7" fill="rgba(255,45,70,0.33)" transform="rotate(128.0 904.1 675.1)"/><ellipse cx="889.7" cy="693.3" rx="7.3" ry="3.7" fill="rgba(255,45,70,0.30)" transform="rotate(128.7 889.7 693.3)"/><ellipse cx="875.1" cy="711.3" rx="7.3" ry="3.7" fill="rgba(255,45,70,0.27)" transform="rotate(129.4 875.1 711.3)"/><ellipse cx="1268.6" cy="1.8" rx="7.3" ry="3.7" fill="rgba(255,45,70,0.57)" transform="rotate(105.0 1268.6 1.8)"/><ellipse cx="1262.3" cy="24.6" rx="7.3" ry="3.7" fill="rgba(255,45,70,0.58)" transform="rotate(105.7 1262.3 24.6)"/><ellipse cx="1255.7" cy="47.3" rx="7.3" ry="3.7" fill="rgba(255,45,70,0.59)" transform="rotate(106.4 1255.7 47.3)"/><ellipse cx="1248.9" cy="70.0" rx="7.3" ry="3.7" fill="rgba(255,45,70,0.59)" transform="rotate(107.1 1248.9 70.0)"/><ellipse cx="1241.8" cy="92.6" rx="7.3" ry="3.7" fill="rgba(255,45,70,0.60)" transform="rotate(107.8 1241.8 92.6)"/><ellipse cx="1234.4" cy="115.1" rx="7.3" ry="3.7" fill="rgba(255,45,70,0.61)" transform="rotate(108.5 1234.4 115.1)"/><ellipse cx="1226.8" cy="137.5" rx="7.3" ry="3.7" fill="rgba(255,45,70,0.62)" transform="rotate(109.2 1226.8 137.5)"/><ellipse cx="1218.8" cy="159.8" rx="7.3" ry="3.7" fill="rgba(255,45,70,0.63)" transform="rotate(109.9 1218.8 159.8)"/><ellipse cx="1210.6" cy="182.0" rx="7.3" ry="3.7" fill="rgba(255,45,70,0.63)" transform="rotate(110.6 1210.6 182.0)"/><ellipse cx="1202.1" cy="204.1" rx="7.3" ry="3.7" fill="rgba(255,45,70,0.64)" transform="rotate(111.3 1202.1 204.1)"/><ellipse cx="1193.4" cy="226.1" rx="7.3" ry="3.7" fill="rgba(255,45,70,0.65)" transform="rotate(112.0 1193.4 226.1)"/><ellipse cx="1184.4" cy="247.9" rx="7.3" ry="3.7" fill="rgba(255,45,70,0.65)" transform="rotate(112.7 1184.4 247.9)"/><ellipse cx="1175.1" cy="269.7" rx="7.3" ry="3.7" fill="rgba(255,45,70,0.64)" transform="rotate(113.4 1175.1 269.7)"/><ellipse cx="1165.5" cy="291.4" rx="7.3" ry="3.7" fill="rgba(255,45,70,0.63)" transform="rotate(114.1 1165.5 291.4)"/><ellipse cx="1155.7" cy="312.9" rx="7.3" ry="3.7" fill="rgba(255,45,70,0.63)" transform="rotate(114.8 1155.7 312.9)"/><ellipse cx="1145.6" cy="334.3" rx="7.3" ry="3.7" fill="rgba(255,45,70,0.62)" transform="rotate(115.5 1145.6 334.3)"/><ellipse cx="1135.3" cy="355.6" rx="7.3" ry="3.7" fill="rgba(255,45,70,0.61)" transform="rotate(116.2 1135.3 355.6)"/><ellipse cx="1124.7" cy="376.8" rx="7.3" ry="3.7" fill="rgba(255,45,70,0.60)" transform="rotate(116.9 1124.7 376.8)"/><ellipse cx="1113.8" cy="397.8" rx="7.3" ry="3.7" fill="rgba(255,45,70,0.59)" transform="rotate(117.6 1113.8 397.8)"/><ellipse cx="1102.7" cy="418.7" rx="7.3" ry="3.7" fill="rgba(255,45,70,0.59)" transform="rotate(118.3 1102.7 418.7)"/><ellipse cx="1091.4" cy="439.5" rx="7.3" ry="3.7" fill="rgba(255,45,70,0.58)" transform="rotate(119.1 1091.4 439.5)"/><ellipse cx="1079.7" cy="460.1" rx="7.3" ry="3.7" fill="rgba(255,45,70,0.57)" transform="rotate(119.8 1079.7 460.1)"/><ellipse cx="1067.9" cy="480.6" rx="7.3" ry="3.7" fill="rgba(255,45,70,0.56)" transform="rotate(120.5 1067.9 480.6)"/><ellipse cx="1055.8" cy="500.9" rx="7.3" ry="3.7" fill="rgba(255,45,70,0.55)" transform="rotate(121.2 1055.8 500.9)"/><ellipse cx="1043.4" cy="521.1" rx="7.3" ry="3.7" fill="rgba(255,45,70,0.55)" transform="rotate(121.9 1043.4 521.1)"/><ellipse cx="1030.8" cy="541.1" rx="7.3" ry="3.7" fill="rgba(255,45,70,0.54)" transform="rotate(122.6 1030.8 541.1)"/><ellipse cx="1017.9" cy="561.0" rx="7.3" ry="3.7" fill="rgba(255,45,70,0.50)" transform="rotate(123.3 1017.9 561.0)"/><ellipse cx="1004.8" cy="580.7" rx="7.3" ry="3.7" fill="rgba(255,45,70,0.47)" transform="rotate(124.0 1004.8 580.7)"/><ellipse cx="991.5" cy="600.3" rx="7.3" ry="3.7" fill="rgba(255,45,70,0.44)" transform="rotate(124.7 991.5 600.3)"/><ellipse cx="977.9" cy="619.7" rx="7.3" ry="3.7" fill="rgba(255,45,70,0.41)" transform="rotate(125.4 977.9 619.7)"/><ellipse cx="964.1" cy="638.9" rx="7.3" ry="3.7" fill="rgba(255,45,70,0.38)" transform="rotate(126.1 964.1 638.9)"/><ellipse cx="950.0" cy="657.9" rx="7.3" ry="3.7" fill="rgba(255,45,70,0.35)" transform="rotate(126.8 950.0 657.9)"/><ellipse cx="935.7" cy="676.8" rx="7.3" ry="3.7" fill="rgba(255,45,70,0.32)" transform="rotate(127.5 935.7 676.8)"/><ellipse cx="921.2" cy="695.5" rx="7.3" ry="3.7" fill="rgba(255,45,70,0.29)" transform="rotate(128.2 921.2 695.5)"/><ellipse cx="906.5" cy="714.0" rx="7.3" ry="3.7" fill="rgba(255,45,70,0.27)" transform="rotate(128.9 906.5 714.0)"/><ellipse cx="891.5" cy="732.4" rx="7.3" ry="3.7" fill="rgba(255,45,70,0.24)" transform="rotate(129.6 891.5 732.4)"/><ellipse cx="1293.9" cy="8.1" rx="7.2" ry="3.7" fill="rgba(255,45,70,0.55)" transform="rotate(105.0 1293.9 8.1)"/><ellipse cx="1287.5" cy="31.4" rx="7.2" ry="3.7" fill="rgba(255,45,70,0.56)" transform="rotate(105.7 1287.5 31.4)"/><ellipse cx="1280.8" cy="54.7" rx="7.2" ry="3.7" fill="rgba(255,45,70,0.57)" transform="rotate(106.4 1280.8 54.7)"/><ellipse cx="1273.8" cy="77.8" rx="7.2" ry="3.7" fill="rgba(255,45,70,0.57)" transform="rotate(107.1 1273.8 77.8)"/><ellipse cx="1266.5" cy="100.9" rx="7.2" ry="3.7" fill="rgba(255,45,70,0.58)" transform="rotate(107.8 1266.5 100.9)"/><ellipse cx="1259.0" cy="123.8" rx="7.2" ry="3.7" fill="rgba(255,45,70,0.59)" transform="rotate(108.6 1259.0 123.8)"/><ellipse cx="1251.2" cy="146.7" rx="7.2" ry="3.7" fill="rgba(255,45,70,0.60)" transform="rotate(109.3 1251.2 146.7)"/><ellipse cx="1243.1" cy="169.5" rx="7.2" ry="3.7" fill="rgba(255,45,70,0.61)" transform="rotate(110.0 1243.1 169.5)"/><ellipse cx="1234.7" cy="192.1" rx="7.2" ry="3.7" fill="rgba(255,45,70,0.61)" transform="rotate(110.7 1234.7 192.1)"/><ellipse cx="1226.0" cy="214.7" rx="7.2" ry="3.7" fill="rgba(255,45,70,0.62)" transform="rotate(111.4 1226.0 214.7)"/><ellipse cx="1217.0" cy="237.1" rx="7.2" ry="3.7" fill="rgba(255,45,70,0.63)" transform="rotate(112.1 1217.0 237.1)"/><ellipse cx="1207.8" cy="259.5" rx="7.2" ry="3.7" fill="rgba(255,45,70,0.63)" transform="rotate(112.8 1207.8 259.5)"/><ellipse cx="1198.3" cy="281.7" rx="7.2" ry="3.7" fill="rgba(255,45,70,0.62)" transform="rotate(113.5 1198.3 281.7)"/><ellipse cx="1188.5" cy="303.8" rx="7.2" ry="3.7" fill="rgba(255,45,70,0.61)" transform="rotate(114.2 1188.5 303.8)"/><ellipse cx="1178.5" cy="325.8" rx="7.2" ry="3.7" fill="rgba(255,45,70,0.61)" transform="rotate(114.9 1178.5 325.8)"/><ellipse cx="1168.2" cy="347.7" rx="7.2" ry="3.7" fill="rgba(255,45,70,0.60)" transform="rotate(115.6 1168.2 347.7)"/><ellipse cx="1157.6" cy="369.4" rx="7.2" ry="3.7" fill="rgba(255,45,70,0.59)" transform="rotate(116.3 1157.6 369.4)"/><ellipse cx="1146.7" cy="391.0" rx="7.2" ry="3.7" fill="rgba(255,45,70,0.58)" transform="rotate(117.0 1146.7 391.0)"/><ellipse cx="1135.6" cy="412.5" rx="7.2" ry="3.7" fill="rgba(255,45,70,0.57)" transform="rotate(117.7 1135.6 412.5)"/><ellipse cx="1124.3" cy="433.8" rx="7.2" ry="3.7" fill="rgba(255,45,70,0.57)" transform="rotate(118.4 1124.3 433.8)"/><ellipse cx="1112.6" cy="455.0" rx="7.2" ry="3.7" fill="rgba(255,45,70,0.56)" transform="rotate(119.1 1112.6 455.0)"/><ellipse cx="1100.7" cy="476.0" rx="7.2" ry="3.7" fill="rgba(255,45,70,0.55)" transform="rotate(119.9 1100.7 476.0)"/><ellipse cx="1088.5" cy="496.9" rx="7.2" ry="3.7" fill="rgba(255,45,70,0.54)" transform="rotate(120.6 1088.5 496.9)"/><ellipse cx="1076.1" cy="517.6" rx="7.2" ry="3.7" fill="rgba(255,45,70,0.54)" transform="rotate(121.3 1076.1 517.6)"/><ellipse cx="1063.5" cy="538.2" rx="7.2" ry="3.7" fill="rgba(255,45,70,0.53)" transform="rotate(122.0 1063.5 538.2)"/><ellipse cx="1050.5" cy="558.7" rx="7.2" ry="3.7" fill="rgba(255,45,70,0.50)" transform="rotate(122.7 1050.5 558.7)"/><ellipse cx="1037.4" cy="578.9" rx="7.2" ry="3.7" fill="rgba(255,45,70,0.46)" transform="rotate(123.4 1037.4 578.9)"/><ellipse cx="1023.9" cy="599.0" rx="7.2" ry="3.7" fill="rgba(255,45,70,0.43)" transform="rotate(124.1 1023.9 599.0)"/><ellipse cx="1010.3" cy="619.0" rx="7.2" ry="3.7" fill="rgba(255,45,70,0.40)" transform="rotate(124.8 1010.3 619.0)"/><ellipse cx="996.3" cy="638.7" rx="7.2" ry="3.7" fill="rgba(255,45,70,0.37)" transform="rotate(125.5 996.3 638.7)"/><ellipse cx="982.2" cy="658.3" rx="7.2" ry="3.7" fill="rgba(255,45,70,0.34)" transform="rotate(126.2 982.2 658.3)"/><ellipse cx="967.8" cy="677.7" rx="7.2" ry="3.7" fill="rgba(255,45,70,0.31)" transform="rotate(126.9 967.8 677.7)"/><ellipse cx="953.2" cy="697.0" rx="7.2" ry="3.7" fill="rgba(255,45,70,0.29)" transform="rotate(127.6 953.2 697.0)"/><ellipse cx="938.3" cy="716.0" rx="7.2" ry="3.7" fill="rgba(255,45,70,0.26)" transform="rotate(128.3 938.3 716.0)"/><ellipse cx="923.2" cy="734.9" rx="7.2" ry="3.7" fill="rgba(255,45,70,0.23)" transform="rotate(129.0 923.2 734.9)"/><ellipse cx="907.8" cy="753.6" rx="7.2" ry="3.7" fill="rgba(255,45,70,0.21)" transform="rotate(129.7 907.8 753.6)"/><ellipse cx="1325.4" cy="-9.4" rx="7.2" ry="3.7" fill="rgba(255,45,70,0.52)" transform="rotate(104.3 1325.4 -9.4)"/><ellipse cx="1319.2" cy="14.5" rx="7.2" ry="3.7" fill="rgba(255,45,70,0.53)" transform="rotate(105.0 1319.2 14.5)"/><ellipse cx="1312.7" cy="38.3" rx="7.2" ry="3.7" fill="rgba(255,45,70,0.54)" transform="rotate(105.7 1312.7 38.3)"/><ellipse cx="1305.8" cy="62.0" rx="7.2" ry="3.7" fill="rgba(255,45,70,0.55)" transform="rotate(106.4 1305.8 62.0)"/><ellipse cx="1298.7" cy="85.6" rx="7.2" ry="3.7" fill="rgba(255,45,70,0.55)" transform="rotate(107.1 1298.7 85.6)"/><ellipse cx="1291.3" cy="109.1" rx="7.2" ry="3.7" fill="rgba(255,45,70,0.56)" transform="rotate(107.9 1291.3 109.1)"/><ellipse cx="1283.6" cy="132.6" rx="7.2" ry="3.7" fill="rgba(255,45,70,0.57)" transform="rotate(108.6 1283.6 132.6)"/><ellipse cx="1275.6" cy="155.9" rx="7.2" ry="3.7" fill="rgba(255,45,70,0.58)" transform="rotate(109.3 1275.6 155.9)"/><ellipse cx="1267.3" cy="179.2" rx="7.2" ry="3.7" fill="rgba(255,45,70,0.58)" transform="rotate(110.0 1267.3 179.2)"/><ellipse cx="1258.7" cy="202.3" rx="7.2" ry="3.7" fill="rgba(255,45,70,0.59)" transform="rotate(110.7 1258.7 202.3)"/><ellipse cx="1249.8" cy="225.3" rx="7.2" ry="3.7" fill="rgba(255,45,70,0.60)" transform="rotate(111.4 1249.8 225.3)"/><ellipse cx="1240.7" cy="248.3" rx="7.2" ry="3.7" fill="rgba(255,45,70,0.61)" transform="rotate(112.1 1240.7 248.3)"/><ellipse cx="1231.2" cy="271.1" rx="7.2" ry="3.7" fill="rgba(255,45,70,0.61)" transform="rotate(112.8 1231.2 271.1)"/><ellipse cx="1221.5" cy="293.8" rx="7.2" ry="3.7" fill="rgba(255,45,70,0.60)" transform="rotate(113.5 1221.5 293.8)"/><ellipse cx="1211.5" cy="316.3" rx="7.2" ry="3.7" fill="rgba(255,45,70,0.59)" transform="rotate(114.3 1211.5 316.3)"/><ellipse cx="1201.2" cy="338.7" rx="7.2" ry="3.7" fill="rgba(255,45,70,0.58)" transform="rotate(115.0 1201.2 338.7)"/><ellipse cx="1190.7" cy="361.1" rx="7.2" ry="3.7" fill="rgba(255,45,70,0.58)" transform="rotate(115.7 1190.7 361.1)"/><ellipse cx="1179.9" cy="383.2" rx="7.2" ry="3.7" fill="rgba(255,45,70,0.57)" transform="rotate(116.4 1179.9 383.2)"/><ellipse cx="1168.8" cy="405.3" rx="7.2" ry="3.7" fill="rgba(255,45,70,0.56)" transform="rotate(117.1 1168.8 405.3)"/><ellipse cx="1157.4" cy="427.2" rx="7.2" ry="3.7" fill="rgba(255,45,70,0.55)" transform="rotate(117.8 1157.4 427.2)"/><ellipse cx="1145.7" cy="448.9" rx="7.2" ry="3.7" fill="rgba(255,45,70,0.55)" transform="rotate(118.5 1145.7 448.9)"/><ellipse cx="1133.8" cy="470.5" rx="7.2" ry="3.7" fill="rgba(255,45,70,0.54)" transform="rotate(119.2 1133.8 470.5)"/><ellipse cx="1121.6" cy="492.0" rx="7.2" ry="3.7" fill="rgba(255,45,70,0.53)" transform="rotate(120.0 1121.6 492.0)"/><ellipse cx="1109.2" cy="513.3" rx="7.2" ry="3.7" fill="rgba(255,45,70,0.52)" transform="rotate(120.7 1109.2 513.3)"/><ellipse cx="1096.4" cy="534.4" rx="7.2" ry="3.7" fill="rgba(255,45,70,0.52)" transform="rotate(121.4 1096.4 534.4)"/><ellipse cx="1083.5" cy="555.4" rx="7.2" ry="3.7" fill="rgba(255,45,70,0.49)" transform="rotate(122.1 1083.5 555.4)"/><ellipse cx="1070.2" cy="576.3" rx="7.2" ry="3.7" fill="rgba(255,45,70,0.46)" transform="rotate(122.8 1070.2 576.3)"/><ellipse cx="1056.7" cy="596.9" rx="7.2" ry="3.7" fill="rgba(255,45,70,0.43)" transform="rotate(123.5 1056.7 596.9)"/><ellipse cx="1043.0" cy="617.4" rx="7.2" ry="3.7" fill="rgba(255,45,70,0.39)" transform="rotate(124.2 1043.0 617.4)"/><ellipse cx="1029.0" cy="637.7" rx="7.2" ry="3.7" fill="rgba(255,45,70,0.36)" transform="rotate(124.9 1029.0 637.7)"/><ellipse cx="1014.7" cy="657.9" rx="7.2" ry="3.7" fill="rgba(255,45,70,0.33)" transform="rotate(125.6 1014.7 657.9)"/><ellipse cx="1000.2" cy="677.8" rx="7.2" ry="3.7" fill="rgba(255,45,70,0.31)" transform="rotate(126.4 1000.2 677.8)"/><ellipse cx="985.5" cy="697.6" rx="7.2" ry="3.7" fill="rgba(255,45,70,0.28)" transform="rotate(127.1 985.5 697.6)"/><ellipse cx="970.5" cy="717.2" rx="7.2" ry="3.7" fill="rgba(255,45,70,0.25)" transform="rotate(127.8 970.5 717.2)"/><ellipse cx="955.2" cy="736.6" rx="7.2" ry="3.7" fill="rgba(255,45,70,0.23)" transform="rotate(128.5 955.2 736.6)"/><ellipse cx="939.7" cy="755.9" rx="7.2" ry="3.7" fill="rgba(255,45,70,0.20)" transform="rotate(129.2 939.7 755.9)"/><ellipse cx="924.0" cy="774.9" rx="7.2" ry="3.7" fill="rgba(255,45,70,0.18)" transform="rotate(129.9 924.0 774.9)"/><ellipse cx="1350.9" cy="-3.6" rx="7.2" ry="3.6" fill="rgba(255,45,70,0.51)" transform="rotate(104.3 1350.9 -3.6)"/><ellipse cx="1344.5" cy="20.8" rx="7.2" ry="3.6" fill="rgba(255,45,70,0.51)" transform="rotate(105.0 1344.5 20.8)"/><ellipse cx="1337.8" cy="45.1" rx="7.2" ry="3.6" fill="rgba(255,45,70,0.52)" transform="rotate(105.7 1337.8 45.1)"/><ellipse cx="1330.9" cy="69.3" rx="7.2" ry="3.6" fill="rgba(255,45,70,0.53)" transform="rotate(106.4 1330.9 69.3)"/><ellipse cx="1323.6" cy="93.4" rx="7.2" ry="3.6" fill="rgba(255,45,70,0.54)" transform="rotate(107.1 1323.6 93.4)"/><ellipse cx="1316.0" cy="117.4" rx="7.2" ry="3.6" fill="rgba(255,45,70,0.54)" transform="rotate(107.9 1316.0 117.4)"/><ellipse cx="1308.1" cy="141.4" rx="7.2" ry="3.6" fill="rgba(255,45,70,0.55)" transform="rotate(108.6 1308.1 141.4)"/><ellipse cx="1300.0" cy="165.2" rx="7.2" ry="3.6" fill="rgba(255,45,70,0.56)" transform="rotate(109.3 1300.0 165.2)"/><ellipse cx="1291.5" cy="188.9" rx="7.2" ry="3.6" fill="rgba(255,45,70,0.56)" transform="rotate(110.0 1291.5 188.9)"/><ellipse cx="1282.7" cy="212.5" rx="7.2" ry="3.6" fill="rgba(255,45,70,0.57)" transform="rotate(110.7 1282.7 212.5)"/><ellipse cx="1273.7" cy="236.0" rx="7.2" ry="3.6" fill="rgba(255,45,70,0.58)" transform="rotate(111.4 1273.7 236.0)"/><ellipse cx="1264.3" cy="259.4" rx="7.2" ry="3.6" fill="rgba(255,45,70,0.59)" transform="rotate(112.2 1264.3 259.4)"/><ellipse cx="1254.7" cy="282.7" rx="7.2" ry="3.6" fill="rgba(255,45,70,0.59)" transform="rotate(112.9 1254.7 282.7)"/><ellipse cx="1244.7" cy="305.8" rx="7.2" ry="3.6" fill="rgba(255,45,70,0.58)" transform="rotate(113.6 1244.7 305.8)"/><ellipse cx="1234.5" cy="328.8" rx="7.2" ry="3.6" fill="rgba(255,45,70,0.57)" transform="rotate(114.3 1234.5 328.8)"/><ellipse cx="1224.0" cy="351.7" rx="7.2" ry="3.6" fill="rgba(255,45,70,0.56)" transform="rotate(115.0 1224.0 351.7)"/><ellipse cx="1213.2" cy="374.5" rx="7.2" ry="3.6" fill="rgba(255,45,70,0.56)" transform="rotate(115.7 1213.2 374.5)"/><ellipse cx="1202.1" cy="397.1" rx="7.2" ry="3.6" fill="rgba(255,45,70,0.55)" transform="rotate(116.5 1202.1 397.1)"/><ellipse cx="1190.7" cy="419.6" rx="7.2" ry="3.6" fill="rgba(255,45,70,0.54)" transform="rotate(117.2 1190.7 419.6)"/><ellipse cx="1179.1" cy="441.9" rx="7.2" ry="3.6" fill="rgba(255,45,70,0.54)" transform="rotate(117.9 1179.1 441.9)"/><ellipse cx="1167.2" cy="464.1" rx="7.2" ry="3.6" fill="rgba(255,45,70,0.53)" transform="rotate(118.6 1167.2 464.1)"/><ellipse cx="1155.0" cy="486.2" rx="7.2" ry="3.6" fill="rgba(255,45,70,0.52)" transform="rotate(119.3 1155.0 486.2)"/><ellipse cx="1142.5" cy="508.0" rx="7.2" ry="3.6" fill="rgba(255,45,70,0.51)" transform="rotate(120.0 1142.5 508.0)"/><ellipse cx="1129.7" cy="529.8" rx="7.2" ry="3.6" fill="rgba(255,45,70,0.51)" transform="rotate(120.8 1129.7 529.8)"/><ellipse cx="1116.7" cy="551.3" rx="7.2" ry="3.6" fill="rgba(255,45,70,0.49)" transform="rotate(121.5 1116.7 551.3)"/><ellipse cx="1103.4" cy="572.7" rx="7.2" ry="3.6" fill="rgba(255,45,70,0.45)" transform="rotate(122.2 1103.4 572.7)"/><ellipse cx="1089.9" cy="593.9" rx="7.2" ry="3.6" fill="rgba(255,45,70,0.42)" transform="rotate(122.9 1089.9 593.9)"/><ellipse cx="1076.0" cy="615.0" rx="7.2" ry="3.6" fill="rgba(255,45,70,0.39)" transform="rotate(123.6 1076.0 615.0)"/><ellipse cx="1062.0" cy="635.9" rx="7.2" ry="3.6" fill="rgba(255,45,70,0.36)" transform="rotate(124.4 1062.0 635.9)"/><ellipse cx="1047.6" cy="656.6" rx="7.2" ry="3.6" fill="rgba(255,45,70,0.33)" transform="rotate(125.1 1047.6 656.6)"/><ellipse cx="1033.0" cy="677.1" rx="7.2" ry="3.6" fill="rgba(255,45,70,0.30)" transform="rotate(125.8 1033.0 677.1)"/><ellipse cx="1018.2" cy="697.5" rx="7.2" ry="3.6" fill="rgba(255,45,70,0.27)" transform="rotate(126.5 1018.2 697.5)"/><ellipse cx="1003.0" cy="717.6" rx="7.2" ry="3.6" fill="rgba(255,45,70,0.25)" transform="rotate(127.2 1003.0 717.6)"/><ellipse cx="987.7" cy="737.6" rx="7.2" ry="3.6" fill="rgba(255,45,70,0.22)" transform="rotate(127.9 987.7 737.6)"/><ellipse cx="972.1" cy="757.4" rx="7.2" ry="3.6" fill="rgba(255,45,70,0.20)" transform="rotate(128.7 972.1 757.4)"/><ellipse cx="956.2" cy="776.9" rx="7.2" ry="3.6" fill="rgba(255,45,70,0.17)" transform="rotate(129.4 956.2 776.9)"/><ellipse cx="940.1" cy="796.3" rx="7.2" ry="3.6" fill="rgba(255,45,70,0.15)" transform="rotate(130.1 940.1 796.3)"/><ellipse cx="1376.3" cy="2.3" rx="7.2" ry="3.6" fill="rgba(255,45,70,0.49)" transform="rotate(104.3 1376.3 2.3)"/><ellipse cx="1369.8" cy="27.1" rx="7.2" ry="3.6" fill="rgba(255,45,70,0.49)" transform="rotate(105.0 1369.8 27.1)"/><ellipse cx="1363.0" cy="51.9" rx="7.2" ry="3.6" fill="rgba(255,45,70,0.50)" transform="rotate(105.7 1363.0 51.9)"/><ellipse cx="1355.9" cy="76.6" rx="7.2" ry="3.6" fill="rgba(255,45,70,0.51)" transform="rotate(106.4 1355.9 76.6)"/><ellipse cx="1348.5" cy="101.2" rx="7.2" ry="3.6" fill="rgba(255,45,70,0.52)" transform="rotate(107.1 1348.5 101.2)"/><ellipse cx="1340.7" cy="125.7" rx="7.2" ry="3.6" fill="rgba(255,45,70,0.52)" transform="rotate(107.9 1340.7 125.7)"/><ellipse cx="1332.7" cy="150.2" rx="7.2" ry="3.6" fill="rgba(255,45,70,0.53)" transform="rotate(108.6 1332.7 150.2)"/><ellipse cx="1324.4" cy="174.5" rx="7.2" ry="3.6" fill="rgba(255,45,70,0.54)" transform="rotate(109.3 1324.4 174.5)"/><ellipse cx="1315.7" cy="198.7" rx="7.2" ry="3.6" fill="rgba(255,45,70,0.54)" transform="rotate(110.0 1315.7 198.7)"/><ellipse cx="1306.7" cy="222.8" rx="7.2" ry="3.6" fill="rgba(255,45,70,0.55)" transform="rotate(110.8 1306.7 222.8)"/><ellipse cx="1297.5" cy="246.7" rx="7.2" ry="3.6" fill="rgba(255,45,70,0.56)" transform="rotate(111.5 1297.5 246.7)"/><ellipse cx="1287.9" cy="270.6" rx="7.2" ry="3.6" fill="rgba(255,45,70,0.56)" transform="rotate(112.2 1287.9 270.6)"/><ellipse cx="1278.1" cy="294.3" rx="7.2" ry="3.6" fill="rgba(255,45,70,0.56)" transform="rotate(112.9 1278.1 294.3)"/><ellipse cx="1267.9" cy="317.9" rx="7.2" ry="3.6" fill="rgba(255,45,70,0.56)" transform="rotate(113.6 1267.9 317.9)"/><ellipse cx="1257.4" cy="341.4" rx="7.2" ry="3.6" fill="rgba(255,45,70,0.55)" transform="rotate(114.4 1257.4 341.4)"/><ellipse cx="1246.7" cy="364.8" rx="7.2" ry="3.6" fill="rgba(255,45,70,0.54)" transform="rotate(115.1 1246.7 364.8)"/><ellipse cx="1235.6" cy="388.0" rx="7.2" ry="3.6" fill="rgba(255,45,70,0.54)" transform="rotate(115.8 1235.6 388.0)"/><ellipse cx="1224.3" cy="411.1" rx="7.2" ry="3.6" fill="rgba(255,45,70,0.53)" transform="rotate(116.5 1224.3 411.1)"/><ellipse cx="1212.7" cy="434.0" rx="7.2" ry="3.6" fill="rgba(255,45,70,0.52)" transform="rotate(117.3 1212.7 434.0)"/><ellipse cx="1200.7" cy="456.8" rx="7.2" ry="3.6" fill="rgba(255,45,70,0.52)" transform="rotate(118.0 1200.7 456.8)"/><ellipse cx="1188.5" cy="479.4" rx="7.2" ry="3.6" fill="rgba(255,45,70,0.51)" transform="rotate(118.7 1188.5 479.4)"/><ellipse cx="1176.1" cy="501.8" rx="7.2" ry="3.6" fill="rgba(255,45,70,0.50)" transform="rotate(119.4 1176.1 501.8)"/><ellipse cx="1163.3" cy="524.2" rx="7.2" ry="3.6" fill="rgba(255,45,70,0.49)" transform="rotate(120.1 1163.3 524.2)"/><ellipse cx="1150.2" cy="546.3" rx="7.2" ry="3.6" fill="rgba(255,45,70,0.48)" transform="rotate(120.9 1150.2 546.3)"/><ellipse cx="1136.9" cy="568.3" rx="7.2" ry="3.6" fill="rgba(255,45,70,0.45)" transform="rotate(121.6 1136.9 568.3)"/><ellipse cx="1123.3" cy="590.1" rx="7.2" ry="3.6" fill="rgba(255,45,70,0.42)" transform="rotate(122.3 1123.3 590.1)"/><ellipse cx="1109.4" cy="611.7" rx="7.2" ry="3.6" fill="rgba(255,45,70,0.38)" transform="rotate(123.0 1109.4 611.7)"/><ellipse cx="1095.3" cy="633.2" rx="7.2" ry="3.6" fill="rgba(255,45,70,0.35)" transform="rotate(123.8 1095.3 633.2)"/><ellipse cx="1080.8" cy="654.5" rx="7.2" ry="3.6" fill="rgba(255,45,70,0.32)" transform="rotate(124.5 1080.8 654.5)"/><ellipse cx="1066.2" cy="675.6" rx="7.2" ry="3.6" fill="rgba(255,45,70,0.30)" transform="rotate(125.2 1066.2 675.6)"/><ellipse cx="1051.2" cy="696.5" rx="7.2" ry="3.6" fill="rgba(255,45,70,0.27)" transform="rotate(125.9 1051.2 696.5)"/><ellipse cx="1036.0" cy="717.2" rx="7.2" ry="3.6" fill="rgba(255,45,70,0.24)" transform="rotate(126.6 1036.0 717.2)"/><ellipse cx="1020.5" cy="737.7" rx="7.2" ry="3.6" fill="rgba(255,45,70,0.22)" transform="rotate(127.4 1020.5 737.7)"/><ellipse cx="1004.8" cy="758.1" rx="7.2" ry="3.6" fill="rgba(255,45,70,0.19)" transform="rotate(128.1 1004.8 758.1)"/><ellipse cx="988.8" cy="778.2" rx="7.2" ry="3.6" fill="rgba(255,45,70,0.17)" transform="rotate(128.8 988.8 778.2)"/><ellipse cx="972.6" cy="798.1" rx="7.2" ry="3.6" fill="rgba(255,45,70,0.15)" transform="rotate(129.5 972.6 798.1)"/><ellipse cx="956.1" cy="817.8" rx="7.2" ry="3.6" fill="rgba(255,45,70,0.12)" transform="rotate(130.3 956.1 817.8)"/><ellipse cx="1401.7" cy="8.1" rx="7.1" ry="3.6" fill="rgba(255,45,70,0.47)" transform="rotate(104.2 1401.7 8.1)"/><ellipse cx="1395.1" cy="33.4" rx="7.1" ry="3.6" fill="rgba(255,45,70,0.48)" transform="rotate(105.0 1395.1 33.4)"/><ellipse cx="1388.2" cy="58.7" rx="7.1" ry="3.6" fill="rgba(255,45,70,0.48)" transform="rotate(105.7 1388.2 58.7)"/><ellipse cx="1380.9" cy="83.9" rx="7.1" ry="3.6" fill="rgba(255,45,70,0.49)" transform="rotate(106.4 1380.9 83.9)"/><ellipse cx="1373.4" cy="109.0" rx="7.1" ry="3.6" fill="rgba(255,45,70,0.50)" transform="rotate(107.2 1373.4 109.0)"/><ellipse cx="1365.5" cy="134.0" rx="7.1" ry="3.6" fill="rgba(255,45,70,0.50)" transform="rotate(107.9 1365.5 134.0)"/><ellipse cx="1357.3" cy="159.0" rx="7.1" ry="3.6" fill="rgba(255,45,70,0.51)" transform="rotate(108.6 1357.3 159.0)"/><ellipse cx="1348.7" cy="183.8" rx="7.1" ry="3.6" fill="rgba(255,45,70,0.52)" transform="rotate(109.3 1348.7 183.8)"/><ellipse cx="1339.9" cy="208.4" rx="7.1" ry="3.6" fill="rgba(255,45,70,0.52)" transform="rotate(110.1 1339.9 208.4)"/><ellipse cx="1330.7" cy="233.0" rx="7.1" ry="3.6" fill="rgba(255,45,70,0.53)" transform="rotate(110.8 1330.7 233.0)"/><ellipse cx="1321.3" cy="257.5" rx="7.1" ry="3.6" fill="rgba(255,45,70,0.54)" transform="rotate(111.5 1321.3 257.5)"/><ellipse cx="1311.5" cy="281.8" rx="7.1" ry="3.6" fill="rgba(255,45,70,0.54)" transform="rotate(112.2 1311.5 281.8)"/><ellipse cx="1301.4" cy="306.0" rx="7.1" ry="3.6" fill="rgba(255,45,70,0.54)" transform="rotate(113.0 1301.4 306.0)"/><ellipse cx="1291.0" cy="330.1" rx="7.1" ry="3.6" fill="rgba(255,45,70,0.54)" transform="rotate(113.7 1291.0 330.1)"/><ellipse cx="1280.3" cy="354.1" rx="7.1" ry="3.6" fill="rgba(255,45,70,0.53)" transform="rotate(114.4 1280.3 354.1)"/><ellipse cx="1269.4" cy="377.9" rx="7.1" ry="3.6" fill="rgba(255,45,70,0.52)" transform="rotate(115.2 1269.4 377.9)"/><ellipse cx="1258.1" cy="401.5" rx="7.1" ry="3.6" fill="rgba(255,45,70,0.52)" transform="rotate(115.9 1258.1 401.5)"/><ellipse cx="1246.5" cy="425.1" rx="7.1" ry="3.6" fill="rgba(255,45,70,0.51)" transform="rotate(116.6 1246.5 425.1)"/><ellipse cx="1234.6" cy="448.4" rx="7.1" ry="3.6" fill="rgba(255,45,70,0.50)" transform="rotate(117.3 1234.6 448.4)"/><ellipse cx="1222.4" cy="471.6" rx="7.1" ry="3.6" fill="rgba(255,45,70,0.50)" transform="rotate(118.1 1222.4 471.6)"/><ellipse cx="1209.9" cy="494.7" rx="7.1" ry="3.6" fill="rgba(255,45,70,0.49)" transform="rotate(118.8 1209.9 494.7)"/><ellipse cx="1197.1" cy="517.6" rx="7.1" ry="3.6" fill="rgba(255,45,70,0.48)" transform="rotate(119.5 1197.1 517.6)"/><ellipse cx="1184.0" cy="540.4" rx="7.1" ry="3.6" fill="rgba(255,45,70,0.48)" transform="rotate(120.2 1184.0 540.4)"/><ellipse cx="1170.7" cy="562.9" rx="7.1" ry="3.6" fill="rgba(255,45,70,0.44)" transform="rotate(121.0 1170.7 562.9)"/><ellipse cx="1157.0" cy="585.3" rx="7.1" ry="3.6" fill="rgba(255,45,70,0.41)" transform="rotate(121.7 1157.0 585.3)"/><ellipse cx="1143.1" cy="607.5" rx="7.1" ry="3.6" fill="rgba(255,45,70,0.38)" transform="rotate(122.4 1143.1 607.5)"/><ellipse cx="1128.9" cy="629.6" rx="7.1" ry="3.6" fill="rgba(255,45,70,0.35)" transform="rotate(123.2 1128.9 629.6)"/><ellipse cx="1114.4" cy="651.5" rx="7.1" ry="3.6" fill="rgba(255,45,70,0.32)" transform="rotate(123.9 1114.4 651.5)"/><ellipse cx="1099.7" cy="673.1" rx="7.1" ry="3.6" fill="rgba(255,45,70,0.29)" transform="rotate(124.6 1099.7 673.1)"/><ellipse cx="1084.6" cy="694.6" rx="7.1" ry="3.6" fill="rgba(255,45,70,0.27)" transform="rotate(125.3 1084.6 694.6)"/><ellipse cx="1069.3" cy="715.9" rx="7.1" ry="3.6" fill="rgba(255,45,70,0.24)" transform="rotate(126.1 1069.3 715.9)"/><ellipse cx="1053.8" cy="737.0" rx="7.1" ry="3.6" fill="rgba(255,45,70,0.21)" transform="rotate(126.8 1053.8 737.0)"/><ellipse cx="1037.9" cy="757.9" rx="7.1" ry="3.6" fill="rgba(255,45,70,0.19)" transform="rotate(127.5 1037.9 757.9)"/><ellipse cx="1021.8" cy="778.6" rx="7.1" ry="3.6" fill="rgba(255,45,70,0.17)" transform="rotate(128.3 1021.8 778.6)"/><ellipse cx="1005.4" cy="799.1" rx="7.1" ry="3.6" fill="rgba(255,45,70,0.14)" transform="rotate(129.0 1005.4 799.1)"/><ellipse cx="988.8" cy="819.4" rx="7.1" ry="3.6" fill="rgba(255,45,70,0.12)" transform="rotate(129.7 988.8 819.4)"/><ellipse cx="971.9" cy="839.5" rx="7.1" ry="3.6" fill="rgba(255,45,70,0.10)" transform="rotate(130.4 971.9 839.5)"/><ellipse cx="1427.2" cy="13.8" rx="7.1" ry="3.6" fill="rgba(255,45,70,0.45)" transform="rotate(104.2 1427.2 13.8)"/><ellipse cx="1420.5" cy="39.7" rx="7.1" ry="3.6" fill="rgba(255,45,70,0.46)" transform="rotate(105.0 1420.5 39.7)"/><ellipse cx="1413.4" cy="65.5" rx="7.1" ry="3.6" fill="rgba(255,45,70,0.46)" transform="rotate(105.7 1413.4 65.5)"/><ellipse cx="1406.0" cy="91.2" rx="7.1" ry="3.6" fill="rgba(255,45,70,0.47)" transform="rotate(106.4 1406.0 91.2)"/><ellipse cx="1398.3" cy="116.9" rx="7.1" ry="3.6" fill="rgba(255,45,70,0.48)" transform="rotate(107.2 1398.3 116.9)"/><ellipse cx="1390.2" cy="142.4" rx="7.1" ry="3.6" fill="rgba(255,45,70,0.48)" transform="rotate(107.9 1390.2 142.4)"/><ellipse cx="1381.8" cy="167.8" rx="7.1" ry="3.6" fill="rgba(255,45,70,0.49)" transform="rotate(108.6 1381.8 167.8)"/><ellipse cx="1373.1" cy="193.1" rx="7.1" ry="3.6" fill="rgba(255,45,70,0.50)" transform="rotate(109.4 1373.1 193.1)"/><ellipse cx="1364.1" cy="218.2" rx="7.1" ry="3.6" fill="rgba(255,45,70,0.50)" transform="rotate(110.1 1364.1 218.2)"/><ellipse cx="1354.7" cy="243.3" rx="7.1" ry="3.6" fill="rgba(255,45,70,0.51)" transform="rotate(110.8 1354.7 243.3)"/><ellipse cx="1345.1" cy="268.3" rx="7.1" ry="3.6" fill="rgba(255,45,70,0.51)" transform="rotate(111.6 1345.1 268.3)"/><ellipse cx="1335.1" cy="293.1" rx="7.1" ry="3.6" fill="rgba(255,45,70,0.52)" transform="rotate(112.3 1335.1 293.1)"/><ellipse cx="1324.8" cy="317.8" rx="7.1" ry="3.6" fill="rgba(255,45,70,0.52)" transform="rotate(113.0 1324.8 317.8)"/><ellipse cx="1314.2" cy="342.3" rx="7.1" ry="3.6" fill="rgba(255,45,70,0.51)" transform="rotate(113.8 1314.2 342.3)"/><ellipse cx="1303.2" cy="366.7" rx="7.1" ry="3.6" fill="rgba(255,45,70,0.51)" transform="rotate(114.5 1303.2 366.7)"/><ellipse cx="1292.0" cy="391.0" rx="7.1" ry="3.6" fill="rgba(255,45,70,0.50)" transform="rotate(115.2 1292.0 391.0)"/><ellipse cx="1280.4" cy="415.1" rx="7.1" ry="3.6" fill="rgba(255,45,70,0.50)" transform="rotate(116.0 1280.4 415.1)"/><ellipse cx="1268.6" cy="439.1" rx="7.1" ry="3.6" fill="rgba(255,45,70,0.49)" transform="rotate(116.7 1268.6 439.1)"/><ellipse cx="1256.4" cy="462.9" rx="7.1" ry="3.6" fill="rgba(255,45,70,0.48)" transform="rotate(117.4 1256.4 462.9)"/><ellipse cx="1244.0" cy="486.6" rx="7.1" ry="3.6" fill="rgba(255,45,70,0.48)" transform="rotate(118.1 1244.0 486.6)"/><ellipse cx="1231.2" cy="510.1" rx="7.1" ry="3.6" fill="rgba(255,45,70,0.47)" transform="rotate(118.9 1231.2 510.1)"/><ellipse cx="1218.1" cy="533.5" rx="7.1" ry="3.6" fill="rgba(255,45,70,0.46)" transform="rotate(119.6 1218.1 533.5)"/><ellipse cx="1204.7" cy="556.6" rx="7.1" ry="3.6" fill="rgba(255,45,70,0.44)" transform="rotate(120.3 1204.7 556.6)"/><ellipse cx="1191.1" cy="579.6" rx="7.1" ry="3.6" fill="rgba(255,45,70,0.41)" transform="rotate(121.1 1191.1 579.6)"/><ellipse cx="1177.1" cy="602.4" rx="7.1" ry="3.6" fill="rgba(255,45,70,0.38)" transform="rotate(121.8 1177.1 602.4)"/><ellipse cx="1162.9" cy="625.1" rx="7.1" ry="3.6" fill="rgba(255,45,70,0.35)" transform="rotate(122.5 1162.9 625.1)"/><ellipse cx="1148.3" cy="647.5" rx="7.1" ry="3.6" fill="rgba(255,45,70,0.32)" transform="rotate(123.3 1148.3 647.5)"/><ellipse cx="1133.5" cy="669.8" rx="7.1" ry="3.6" fill="rgba(255,45,70,0.29)" transform="rotate(124.0 1133.5 669.8)"/><ellipse cx="1118.4" cy="691.9" rx="7.1" ry="3.6" fill="rgba(255,45,70,0.26)" transform="rotate(124.7 1118.4 691.9)"/><ellipse cx="1103.0" cy="713.8" rx="7.1" ry="3.6" fill="rgba(255,45,70,0.24)" transform="rotate(125.5 1103.0 713.8)"/><ellipse cx="1087.4" cy="735.5" rx="7.1" ry="3.6" fill="rgba(255,45,70,0.21)" transform="rotate(126.2 1087.4 735.5)"/><ellipse cx="1071.4" cy="756.9" rx="7.1" ry="3.6" fill="rgba(255,45,70,0.19)" transform="rotate(126.9 1071.4 756.9)"/><ellipse cx="1055.2" cy="778.2" rx="7.1" ry="3.6" fill="rgba(255,45,70,0.16)" transform="rotate(127.7 1055.2 778.2)"/><ellipse cx="1038.7" cy="799.3" rx="7.1" ry="3.6" fill="rgba(255,45,70,0.14)" transform="rotate(128.4 1038.7 799.3)"/><ellipse cx="1022.0" cy="820.1" rx="7.1" ry="3.6" fill="rgba(255,45,70,0.12)" transform="rotate(129.1 1022.0 820.1)"/><ellipse cx="1004.9" cy="840.8" rx="7.1" ry="3.6" fill="rgba(255,45,70,0.10)" transform="rotate(129.9 1004.9 840.8)"/><ellipse cx="987.7" cy="861.2" rx="7.1" ry="3.6" fill="rgba(255,45,70,0.08)" transform="rotate(130.6 987.7 861.2)"/><ellipse cx="1459.2" cy="-6.9" rx="7.1" ry="3.6" fill="rgba(255,45,70,0.43)" transform="rotate(103.5 1459.2 -6.9)"/><ellipse cx="1452.6" cy="19.6" rx="7.1" ry="3.6" fill="rgba(255,45,70,0.43)" transform="rotate(104.2 1452.6 19.6)"/><ellipse cx="1445.8" cy="46.0" rx="7.1" ry="3.6" fill="rgba(255,45,70,0.44)" transform="rotate(104.9 1445.8 46.0)"/><ellipse cx="1438.6" cy="72.3" rx="7.1" ry="3.6" fill="rgba(255,45,70,0.44)" transform="rotate(105.7 1438.6 72.3)"/><ellipse cx="1431.0" cy="98.6" rx="7.1" ry="3.6" fill="rgba(255,45,70,0.45)" transform="rotate(106.4 1431.0 98.6)"/><ellipse cx="1423.1" cy="124.7" rx="7.1" ry="3.6" fill="rgba(255,45,70,0.46)" transform="rotate(107.2 1423.1 124.7)"/><ellipse cx="1414.9" cy="150.7" rx="7.1" ry="3.6" fill="rgba(255,45,70,0.46)" transform="rotate(107.9 1414.9 150.7)"/><ellipse cx="1406.4" cy="176.6" rx="7.1" ry="3.6" fill="rgba(255,45,70,0.47)" transform="rotate(108.6 1406.4 176.6)"/><ellipse cx="1397.5" cy="202.4" rx="7.1" ry="3.6" fill="rgba(255,45,70,0.47)" transform="rotate(109.4 1397.5 202.4)"/><ellipse cx="1388.3" cy="228.1" rx="7.1" ry="3.6" fill="rgba(255,45,70,0.48)" transform="rotate(110.1 1388.3 228.1)"/><ellipse cx="1378.7" cy="253.6" rx="7.1" ry="3.6" fill="rgba(255,45,70,0.49)" transform="rotate(110.9 1378.7 253.6)"/><ellipse cx="1368.9" cy="279.1" rx="7.1" ry="3.6" fill="rgba(255,45,70,0.49)" transform="rotate(111.6 1368.9 279.1)"/><ellipse cx="1358.7" cy="304.4" rx="7.1" ry="3.6" fill="rgba(255,45,70,0.50)" transform="rotate(112.3 1358.7 304.4)"/><ellipse cx="1348.1" cy="329.5" rx="7.1" ry="3.6" fill="rgba(255,45,70,0.50)" transform="rotate(113.1 1348.1 329.5)"/><ellipse cx="1337.3" cy="354.6" rx="7.1" ry="3.6" fill="rgba(255,45,70,0.49)" transform="rotate(113.8 1337.3 354.6)"/><ellipse cx="1326.1" cy="379.5" rx="7.1" ry="3.6" fill="rgba(255,45,70,0.49)" transform="rotate(114.5 1326.1 379.5)"/><ellipse cx="1314.6" cy="404.2" rx="7.1" ry="3.6" fill="rgba(255,45,70,0.48)" transform="rotate(115.3 1314.6 404.2)"/><ellipse cx="1302.8" cy="428.8" rx="7.1" ry="3.6" fill="rgba(255,45,70,0.47)" transform="rotate(116.0 1302.8 428.8)"/><ellipse cx="1290.7" cy="453.2" rx="7.1" ry="3.6" fill="rgba(255,45,70,0.47)" transform="rotate(116.8 1290.7 453.2)"/><ellipse cx="1278.2" cy="477.5" rx="7.1" ry="3.6" fill="rgba(255,45,70,0.46)" transform="rotate(117.5 1278.2 477.5)"/><ellipse cx="1265.5" cy="501.6" rx="7.1" ry="3.6" fill="rgba(255,45,70,0.46)" transform="rotate(118.2 1265.5 501.6)"/><ellipse cx="1252.4" cy="525.6" rx="7.1" ry="3.6" fill="rgba(255,45,70,0.45)" transform="rotate(119.0 1252.4 525.6)"/><ellipse cx="1239.1" cy="549.4" rx="7.1" ry="3.6" fill="rgba(255,45,70,0.43)" transform="rotate(119.7 1239.1 549.4)"/><ellipse cx="1225.4" cy="573.0" rx="7.1" ry="3.6" fill="rgba(255,45,70,0.40)" transform="rotate(120.4 1225.4 573.0)"/><ellipse cx="1211.4" cy="596.4" rx="7.1" ry="3.6" fill="rgba(255,45,70,0.37)" transform="rotate(121.2 1211.4 596.4)"/><ellipse cx="1197.1" cy="619.7" rx="7.1" ry="3.6" fill="rgba(255,45,70,0.34)" transform="rotate(121.9 1197.1 619.7)"/><ellipse cx="1182.6" cy="642.7" rx="7.1" ry="3.6" fill="rgba(255,45,70,0.31)" transform="rotate(122.7 1182.6 642.7)"/><ellipse cx="1167.7" cy="665.6" rx="7.1" ry="3.6" fill="rgba(255,45,70,0.28)" transform="rotate(123.4 1167.7 665.6)"/><ellipse cx="1152.5" cy="688.3" rx="7.1" ry="3.6" fill="rgba(255,45,70,0.26)" transform="rotate(124.1 1152.5 688.3)"/><ellipse cx="1137.1" cy="710.7" rx="7.1" ry="3.6" fill="rgba(255,45,70,0.23)" transform="rotate(124.9 1137.1 710.7)"/><ellipse cx="1121.3" cy="733.0" rx="7.1" ry="3.6" fill="rgba(255,45,70,0.21)" transform="rotate(125.6 1121.3 733.0)"/><ellipse cx="1105.3" cy="755.1" rx="7.1" ry="3.6" fill="rgba(255,45,70,0.18)" transform="rotate(126.4 1105.3 755.1)"/><ellipse cx="1089.0" cy="777.0" rx="7.1" ry="3.6" fill="rgba(255,45,70,0.16)" transform="rotate(127.1 1089.0 777.0)"/><ellipse cx="1072.4" cy="798.6" rx="7.1" ry="3.6" fill="rgba(255,45,70,0.14)" transform="rotate(127.8 1072.4 798.6)"/><ellipse cx="1055.5" cy="820.1" rx="7.1" ry="3.6" fill="rgba(255,45,70,0.11)" transform="rotate(128.6 1055.5 820.1)"/><ellipse cx="1038.4" cy="841.3" rx="7.1" ry="3.6" fill="rgba(255,45,70,0.09)" transform="rotate(129.3 1038.4 841.3)"/><ellipse cx="1021.0" cy="862.3" rx="7.1" ry="3.6" fill="rgba(255,45,70,0.07)" transform="rotate(130.0 1021.0 862.3)"/><ellipse cx="1003.3" cy="883.1" rx="7.1" ry="3.6" fill="rgba(255,45,70,0.05)" transform="rotate(130.8 1003.3 883.1)"/><ellipse cx="1478.1" cy="25.4" rx="7.1" ry="3.6" fill="rgba(255,45,70,0.41)" transform="rotate(104.2 1478.1 25.4)"/><ellipse cx="1471.1" cy="52.3" rx="7.1" ry="3.6" fill="rgba(255,45,70,0.42)" transform="rotate(104.9 1471.1 52.3)"/><ellipse cx="1463.8" cy="79.1" rx="7.1" ry="3.6" fill="rgba(255,45,70,0.42)" transform="rotate(105.7 1463.8 79.1)"/><ellipse cx="1456.1" cy="105.9" rx="7.1" ry="3.6" fill="rgba(255,45,70,0.43)" transform="rotate(106.4 1456.1 105.9)"/><ellipse cx="1448.0" cy="132.5" rx="7.1" ry="3.6" fill="rgba(255,45,70,0.44)" transform="rotate(107.2 1448.0 132.5)"/><ellipse cx="1439.7" cy="159.0" rx="7.1" ry="3.6" fill="rgba(255,45,70,0.44)" transform="rotate(107.9 1439.7 159.0)"/><ellipse cx="1430.9" cy="185.4" rx="7.1" ry="3.6" fill="rgba(255,45,70,0.45)" transform="rotate(108.6 1430.9 185.4)"/><ellipse cx="1421.9" cy="211.7" rx="7.1" ry="3.6" fill="rgba(255,45,70,0.45)" transform="rotate(109.4 1421.9 211.7)"/><ellipse cx="1412.5" cy="237.9" rx="7.1" ry="3.6" fill="rgba(255,45,70,0.46)" transform="rotate(110.1 1412.5 237.9)"/><ellipse cx="1402.7" cy="264.0" rx="7.1" ry="3.6" fill="rgba(255,45,70,0.47)" transform="rotate(110.9 1402.7 264.0)"/><ellipse cx="1392.6" cy="289.9" rx="7.1" ry="3.6" fill="rgba(255,45,70,0.47)" transform="rotate(111.6 1392.6 289.9)"/><ellipse cx="1382.2" cy="315.7" rx="7.1" ry="3.6" fill="rgba(255,45,70,0.48)" transform="rotate(112.4 1382.2 315.7)"/><ellipse cx="1371.5" cy="341.3" rx="7.1" ry="3.6" fill="rgba(255,45,70,0.48)" transform="rotate(113.1 1371.5 341.3)"/><ellipse cx="1360.4" cy="366.9" rx="7.1" ry="3.6" fill="rgba(255,45,70,0.47)" transform="rotate(113.9 1360.4 366.9)"/><ellipse cx="1349.0" cy="392.2" rx="7.1" ry="3.6" fill="rgba(255,45,70,0.47)" transform="rotate(114.6 1349.0 392.2)"/><ellipse cx="1337.2" cy="417.4" rx="7.1" ry="3.6" fill="rgba(255,45,70,0.46)" transform="rotate(115.3 1337.2 417.4)"/><ellipse cx="1325.1" cy="442.5" rx="7.1" ry="3.6" fill="rgba(255,45,70,0.45)" transform="rotate(116.1 1325.1 442.5)"/><ellipse cx="1312.8" cy="467.4" rx="7.1" ry="3.6" fill="rgba(255,45,70,0.45)" transform="rotate(116.8 1312.8 467.4)"/><ellipse cx="1300.0" cy="492.1" rx="7.1" ry="3.6" fill="rgba(255,45,70,0.44)" transform="rotate(117.6 1300.0 492.1)"/><ellipse cx="1287.0" cy="516.7" rx="7.1" ry="3.6" fill="rgba(255,45,70,0.44)" transform="rotate(118.3 1287.0 516.7)"/><ellipse cx="1273.6" cy="541.1" rx="7.1" ry="3.6" fill="rgba(255,45,70,0.43)" transform="rotate(119.1 1273.6 541.1)"/><ellipse cx="1260.0" cy="565.4" rx="7.1" ry="3.6" fill="rgba(255,45,70,0.40)" transform="rotate(119.8 1260.0 565.4)"/><ellipse cx="1246.0" cy="589.4" rx="7.1" ry="3.6" fill="rgba(255,45,70,0.37)" transform="rotate(120.5 1246.0 589.4)"/><ellipse cx="1231.7" cy="613.3" rx="7.1" ry="3.6" fill="rgba(255,45,70,0.34)" transform="rotate(121.3 1231.7 613.3)"/><ellipse cx="1217.1" cy="636.9" rx="7.1" ry="3.6" fill="rgba(255,45,70,0.31)" transform="rotate(122.0 1217.1 636.9)"/><ellipse cx="1202.2" cy="660.4" rx="7.1" ry="3.6" fill="rgba(255,45,70,0.28)" transform="rotate(122.8 1202.2 660.4)"/><ellipse cx="1187.0" cy="683.7" rx="7.1" ry="3.6" fill="rgba(255,45,70,0.25)" transform="rotate(123.5 1187.0 683.7)"/><ellipse cx="1171.5" cy="706.8" rx="7.1" ry="3.6" fill="rgba(255,45,70,0.23)" transform="rotate(124.3 1171.5 706.8)"/><ellipse cx="1155.7" cy="729.7" rx="7.1" ry="3.6" fill="rgba(255,45,70,0.20)" transform="rotate(125.0 1155.7 729.7)"/><ellipse cx="1139.6" cy="752.4" rx="7.1" ry="3.6" fill="rgba(255,45,70,0.18)" transform="rotate(125.8 1139.6 752.4)"/><ellipse cx="1123.2" cy="774.8" rx="7.1" ry="3.6" fill="rgba(255,45,70,0.16)" transform="rotate(126.5 1123.2 774.8)"/><ellipse cx="1106.5" cy="797.1" rx="7.1" ry="3.6" fill="rgba(255,45,70,0.13)" transform="rotate(127.2 1106.5 797.1)"/><ellipse cx="1089.5" cy="819.1" rx="7.1" ry="3.6" fill="rgba(255,45,70,0.11)" transform="rotate(128.0 1089.5 819.1)"/><ellipse cx="1072.2" cy="840.9" rx="7.1" ry="3.6" fill="rgba(255,45,70,0.09)" transform="rotate(128.7 1072.2 840.9)"/><ellipse cx="1054.7" cy="862.5" rx="7.1" ry="3.6" fill="rgba(255,45,70,0.07)" transform="rotate(129.5 1054.7 862.5)"/><ellipse cx="1036.9" cy="883.9" rx="7.1" ry="3.6" fill="rgba(255,45,70,0.05)" transform="rotate(130.2 1036.9 883.9)"/><ellipse cx="1018.8" cy="905.0" rx="7.1" ry="3.6" fill="rgba(255,45,70,0.03)" transform="rotate(131.0 1018.8 905.0)"/><ellipse cx="1472.9" cy="140.3" rx="7.0" ry="3.6" fill="rgba(255,45,70,0.42)" transform="rotate(107.2 1472.9 140.3)"/><ellipse cx="1464.4" cy="167.4" rx="7.0" ry="3.6" fill="rgba(255,45,70,0.42)" transform="rotate(107.9 1464.4 167.4)"/><ellipse cx="1455.5" cy="194.3" rx="7.0" ry="3.6" fill="rgba(255,45,70,0.43)" transform="rotate(108.7 1455.5 194.3)"/><ellipse cx="1446.2" cy="221.1" rx="7.0" ry="3.6" fill="rgba(255,45,70,0.43)" transform="rotate(109.4 1446.2 221.1)"/><ellipse cx="1436.6" cy="247.8" rx="7.0" ry="3.6" fill="rgba(255,45,70,0.44)" transform="rotate(110.2 1436.6 247.8)"/><ellipse cx="1426.7" cy="274.3" rx="7.0" ry="3.6" fill="rgba(255,45,70,0.44)" transform="rotate(110.9 1426.7 274.3)"/><ellipse cx="1416.4" cy="300.8" rx="7.0" ry="3.6" fill="rgba(255,45,70,0.45)" transform="rotate(111.7 1416.4 300.8)"/><ellipse cx="1405.7" cy="327.0" rx="7.0" ry="3.6" fill="rgba(255,45,70,0.46)" transform="rotate(112.4 1405.7 327.0)"/><ellipse cx="1394.8" cy="353.2" rx="7.0" ry="3.6" fill="rgba(255,45,70,0.46)" transform="rotate(113.2 1394.8 353.2)"/><ellipse cx="1383.4" cy="379.2" rx="7.0" ry="3.6" fill="rgba(255,45,70,0.45)" transform="rotate(113.9 1383.4 379.2)"/><ellipse cx="1371.8" cy="405.0" rx="7.0" ry="3.6" fill="rgba(255,45,70,0.44)" transform="rotate(114.7 1371.8 405.0)"/><ellipse cx="1359.8" cy="430.7" rx="7.0" ry="3.6" fill="rgba(255,45,70,0.44)" transform="rotate(115.4 1359.8 430.7)"/><ellipse cx="1347.5" cy="456.3" rx="7.0" ry="3.6" fill="rgba(255,45,70,0.43)" transform="rotate(116.2 1347.5 456.3)"/><ellipse cx="1334.8" cy="481.6" rx="7.0" ry="3.6" fill="rgba(255,45,70,0.43)" transform="rotate(116.9 1334.8 481.6)"/><ellipse cx="1321.8" cy="506.8" rx="7.0" ry="3.6" fill="rgba(255,45,70,0.42)" transform="rotate(117.7 1321.8 506.8)"/><ellipse cx="1308.5" cy="531.9" rx="7.0" ry="3.6" fill="rgba(255,45,70,0.42)" transform="rotate(118.4 1308.5 531.9)"/><ellipse cx="1294.8" cy="556.7" rx="7.0" ry="3.6" fill="rgba(255,45,70,0.39)" transform="rotate(119.1 1294.8 556.7)"/><ellipse cx="1280.8" cy="581.4" rx="7.0" ry="3.6" fill="rgba(255,45,70,0.36)" transform="rotate(119.9 1280.8 581.4)"/><ellipse cx="1266.5" cy="605.9" rx="7.0" ry="3.6" fill="rgba(255,45,70,0.33)" transform="rotate(120.6 1266.5 605.9)"/><ellipse cx="1251.9" cy="630.2" rx="7.0" ry="3.6" fill="rgba(255,45,70,0.31)" transform="rotate(121.4 1251.9 630.2)"/><ellipse cx="1237.0" cy="654.3" rx="7.0" ry="3.6" fill="rgba(255,45,70,0.28)" transform="rotate(122.1 1237.0 654.3)"/><ellipse cx="1221.8" cy="678.2" rx="7.0" ry="3.6" fill="rgba(255,45,70,0.25)" transform="rotate(122.9 1221.8 678.2)"/><ellipse cx="1206.2" cy="701.9" rx="7.0" ry="3.6" fill="rgba(255,45,70,0.23)" transform="rotate(123.6 1206.2 701.9)"/><ellipse cx="1190.3" cy="725.4" rx="7.0" ry="3.6" fill="rgba(255,45,70,0.20)" transform="rotate(124.4 1190.3 725.4)"/><ellipse cx="1174.2" cy="748.7" rx="7.0" ry="3.6" fill="rgba(255,45,70,0.18)" transform="rotate(125.1 1174.2 748.7)"/><ellipse cx="1157.7" cy="771.8" rx="7.0" ry="3.6" fill="rgba(255,45,70,0.15)" transform="rotate(125.9 1157.7 771.8)"/><ellipse cx="1140.9" cy="794.7" rx="7.0" ry="3.6" fill="rgba(255,45,70,0.13)" transform="rotate(126.6 1140.9 794.7)"/><ellipse cx="1123.9" cy="817.3" rx="7.0" ry="3.6" fill="rgba(255,45,70,0.11)" transform="rotate(127.4 1123.9 817.3)"/><ellipse cx="1106.5" cy="839.7" rx="7.0" ry="3.6" fill="rgba(255,45,70,0.09)" transform="rotate(128.1 1106.5 839.7)"/><ellipse cx="1088.8" cy="861.9" rx="7.0" ry="3.6" fill="rgba(255,45,70,0.07)" transform="rotate(128.9 1088.8 861.9)"/><ellipse cx="1070.9" cy="883.9" rx="7.0" ry="3.6" fill="rgba(255,45,70,0.05)" transform="rotate(129.6 1070.9 883.9)"/><ellipse cx="1052.7" cy="905.6" rx="7.0" ry="3.6" fill="rgba(255,45,70,0.03)" transform="rotate(130.4 1052.7 905.6)"/><ellipse cx="1470.6" cy="230.5" rx="7.0" ry="3.6" fill="rgba(255,45,70,0.41)" transform="rotate(109.4 1470.6 230.5)"/><ellipse cx="1460.8" cy="257.7" rx="7.0" ry="3.6" fill="rgba(255,45,70,0.42)" transform="rotate(110.2 1460.8 257.7)"/><ellipse cx="1450.6" cy="284.7" rx="7.0" ry="3.6" fill="rgba(255,45,70,0.42)" transform="rotate(110.9 1450.6 284.7)"/><ellipse cx="1440.1" cy="311.6" rx="7.0" ry="3.6" fill="rgba(255,45,70,0.43)" transform="rotate(111.7 1440.1 311.6)"/><ellipse cx="1429.3" cy="338.4" rx="7.0" ry="3.6" fill="rgba(255,45,70,0.43)" transform="rotate(112.4 1429.3 338.4)"/><ellipse cx="1418.1" cy="365.1" rx="7.0" ry="3.6" fill="rgba(255,45,70,0.43)" transform="rotate(113.2 1418.1 365.1)"/><ellipse cx="1406.5" cy="391.6" rx="7.0" ry="3.6" fill="rgba(255,45,70,0.43)" transform="rotate(114.0 1406.5 391.6)"/><ellipse cx="1394.6" cy="417.9" rx="7.0" ry="3.6" fill="rgba(255,45,70,0.42)" transform="rotate(114.7 1394.6 417.9)"/><ellipse cx="1382.3" cy="444.1" rx="7.0" ry="3.6" fill="rgba(255,45,70,0.42)" transform="rotate(115.5 1382.3 444.1)"/><ellipse cx="1369.7" cy="470.1" rx="7.0" ry="3.6" fill="rgba(255,45,70,0.41)" transform="rotate(116.2 1369.7 470.1)"/><ellipse cx="1356.8" cy="495.9" rx="7.0" ry="3.6" fill="rgba(255,45,70,0.41)" transform="rotate(117.0 1356.8 495.9)"/><ellipse cx="1343.5" cy="521.6" rx="7.0" ry="3.6" fill="rgba(255,45,70,0.40)" transform="rotate(117.7 1343.5 521.6)"/><ellipse cx="1329.9" cy="547.1" rx="7.0" ry="3.6" fill="rgba(255,45,70,0.39)" transform="rotate(118.5 1329.9 547.1)"/><ellipse cx="1315.9" cy="572.4" rx="7.0" ry="3.6" fill="rgba(255,45,70,0.36)" transform="rotate(119.2 1315.9 572.4)"/><ellipse cx="1301.7" cy="597.5" rx="7.0" ry="3.6" fill="rgba(255,45,70,0.33)" transform="rotate(120.0 1301.7 597.5)"/><ellipse cx="1287.0" cy="622.5" rx="7.0" ry="3.6" fill="rgba(255,45,70,0.30)" transform="rotate(120.7 1287.0 622.5)"/><ellipse cx="1272.1" cy="647.2" rx="7.0" ry="3.6" fill="rgba(255,45,70,0.28)" transform="rotate(121.5 1272.1 647.2)"/><ellipse cx="1256.8" cy="671.8" rx="7.0" ry="3.6" fill="rgba(255,45,70,0.25)" transform="rotate(122.3 1256.8 671.8)"/><ellipse cx="1241.3" cy="696.1" rx="7.0" ry="3.6" fill="rgba(255,45,70,0.22)" transform="rotate(123.0 1241.3 696.1)"/><ellipse cx="1225.4" cy="720.2" rx="7.0" ry="3.6" fill="rgba(255,45,70,0.20)" transform="rotate(123.8 1225.4 720.2)"/><ellipse cx="1209.1" cy="744.1" rx="7.0" ry="3.6" fill="rgba(255,45,70,0.18)" transform="rotate(124.5 1209.1 744.1)"/><ellipse cx="1192.6" cy="767.9" rx="7.0" ry="3.6" fill="rgba(255,45,70,0.15)" transform="rotate(125.3 1192.6 767.9)"/><ellipse cx="1175.8" cy="791.3" rx="7.0" ry="3.6" fill="rgba(255,45,70,0.13)" transform="rotate(126.0 1175.8 791.3)"/><ellipse cx="1158.6" cy="814.6" rx="7.0" ry="3.6" fill="rgba(255,45,70,0.11)" transform="rotate(126.8 1158.6 814.6)"/><ellipse cx="1141.2" cy="837.6" rx="7.0" ry="3.6" fill="rgba(255,45,70,0.09)" transform="rotate(127.5 1141.2 837.6)"/><ellipse cx="1123.4" cy="860.4" rx="7.0" ry="3.6" fill="rgba(255,45,70,0.07)" transform="rotate(128.3 1123.4 860.4)"/><ellipse cx="1105.3" cy="883.0" rx="7.0" ry="3.6" fill="rgba(255,45,70,0.05)" transform="rotate(129.0 1105.3 883.0)"/><ellipse cx="1087.0" cy="905.3" rx="7.0" ry="3.6" fill="rgba(255,45,70,0.03)" transform="rotate(129.8 1087.0 905.3)"/><ellipse cx="1474.6" cy="295.1" rx="7.0" ry="3.5" fill="rgba(255,45,70,0.40)" transform="rotate(111.0 1474.6 295.1)"/><ellipse cx="1463.9" cy="322.6" rx="7.0" ry="3.5" fill="rgba(255,45,70,0.41)" transform="rotate(111.7 1463.9 322.6)"/><ellipse cx="1452.8" cy="349.9" rx="7.0" ry="3.5" fill="rgba(255,45,70,0.41)" transform="rotate(112.5 1452.8 349.9)"/><ellipse cx="1441.3" cy="377.0" rx="7.0" ry="3.5" fill="rgba(255,45,70,0.41)" transform="rotate(113.2 1441.3 377.0)"/><ellipse cx="1429.5" cy="404.0" rx="7.0" ry="3.5" fill="rgba(255,45,70,0.41)" transform="rotate(114.0 1429.5 404.0)"/><ellipse cx="1417.4" cy="430.8" rx="7.0" ry="3.5" fill="rgba(255,45,70,0.40)" transform="rotate(114.8 1417.4 430.8)"/><ellipse cx="1404.8" cy="457.5" rx="7.0" ry="3.5" fill="rgba(255,45,70,0.40)" transform="rotate(115.5 1404.8 457.5)"/><ellipse cx="1392.0" cy="484.0" rx="7.0" ry="3.5" fill="rgba(255,45,70,0.39)" transform="rotate(116.3 1392.0 484.0)"/><ellipse cx="1378.8" cy="510.3" rx="7.0" ry="3.5" fill="rgba(255,45,70,0.39)" transform="rotate(117.0 1378.8 510.3)"/><ellipse cx="1365.2" cy="536.4" rx="7.0" ry="3.5" fill="rgba(255,45,70,0.38)" transform="rotate(117.8 1365.2 536.4)"/><ellipse cx="1351.3" cy="562.4" rx="7.0" ry="3.5" fill="rgba(255,45,70,0.36)" transform="rotate(118.6 1351.3 562.4)"/><ellipse cx="1337.0" cy="588.1" rx="7.0" ry="3.5" fill="rgba(255,45,70,0.33)" transform="rotate(119.3 1337.0 588.1)"/><ellipse cx="1322.4" cy="613.7" rx="7.0" ry="3.5" fill="rgba(255,45,70,0.30)" transform="rotate(120.1 1322.4 613.7)"/><ellipse cx="1307.5" cy="639.1" rx="7.0" ry="3.5" fill="rgba(255,45,70,0.27)" transform="rotate(120.8 1307.5 639.1)"/><ellipse cx="1292.2" cy="664.3" rx="7.0" ry="3.5" fill="rgba(255,45,70,0.25)" transform="rotate(121.6 1292.2 664.3)"/><ellipse cx="1276.6" cy="689.3" rx="7.0" ry="3.5" fill="rgba(255,45,70,0.22)" transform="rotate(122.4 1276.6 689.3)"/><ellipse cx="1260.7" cy="714.1" rx="7.0" ry="3.5" fill="rgba(255,45,70,0.20)" transform="rotate(123.1 1260.7 714.1)"/><ellipse cx="1244.4" cy="738.6" rx="7.0" ry="3.5" fill="rgba(255,45,70,0.17)" transform="rotate(123.9 1244.4 738.6)"/><ellipse cx="1227.9" cy="763.0" rx="7.0" ry="3.5" fill="rgba(255,45,70,0.15)" transform="rotate(124.6 1227.9 763.0)"/><ellipse cx="1211.0" cy="787.1" rx="7.0" ry="3.5" fill="rgba(255,45,70,0.13)" transform="rotate(125.4 1211.0 787.1)"/><ellipse cx="1193.7" cy="811.0" rx="7.0" ry="3.5" fill="rgba(255,45,70,0.11)" transform="rotate(126.2 1193.7 811.0)"/><ellipse cx="1176.2" cy="834.6" rx="7.0" ry="3.5" fill="rgba(255,45,70,0.09)" transform="rotate(126.9 1176.2 834.6)"/><ellipse cx="1158.4" cy="858.1" rx="7.0" ry="3.5" fill="rgba(255,45,70,0.07)" transform="rotate(127.7 1158.4 858.1)"/><ellipse cx="1140.2" cy="881.2" rx="7.0" ry="3.5" fill="rgba(255,45,70,0.05)" transform="rotate(128.4 1140.2 881.2)"/><ellipse cx="1121.7" cy="904.2" rx="7.0" ry="3.5" fill="rgba(255,45,70,0.03)" transform="rotate(129.2 1121.7 904.2)"/><ellipse cx="1476.3" cy="361.3" rx="7.0" ry="3.5" fill="rgba(255,45,70,0.39)" transform="rotate(112.5 1476.3 361.3)"/><ellipse cx="1464.6" cy="389.0" rx="7.0" ry="3.5" fill="rgba(255,45,70,0.39)" transform="rotate(113.3 1464.6 389.0)"/><ellipse cx="1452.5" cy="416.4" rx="7.0" ry="3.5" fill="rgba(255,45,70,0.39)" transform="rotate(114.1 1452.5 416.4)"/><ellipse cx="1440.1" cy="443.8" rx="7.0" ry="3.5" fill="rgba(255,45,70,0.38)" transform="rotate(114.8 1440.1 443.8)"/><ellipse cx="1427.3" cy="470.9" rx="7.0" ry="3.5" fill="rgba(255,45,70,0.38)" transform="rotate(115.6 1427.3 470.9)"/><ellipse cx="1414.2" cy="497.9" rx="7.0" ry="3.5" fill="rgba(255,45,70,0.37)" transform="rotate(116.4 1414.2 497.9)"/><ellipse cx="1400.7" cy="524.7" rx="7.0" ry="3.5" fill="rgba(255,45,70,0.37)" transform="rotate(117.1 1400.7 524.7)"/><ellipse cx="1386.8" cy="551.3" rx="7.0" ry="3.5" fill="rgba(255,45,70,0.35)" transform="rotate(117.9 1386.8 551.3)"/><ellipse cx="1372.6" cy="577.7" rx="7.0" ry="3.5" fill="rgba(255,45,70,0.32)" transform="rotate(118.6 1372.6 577.7)"/><ellipse cx="1358.1" cy="604.0" rx="7.0" ry="3.5" fill="rgba(255,45,70,0.30)" transform="rotate(119.4 1358.1 604.0)"/><ellipse cx="1343.1" cy="630.0" rx="7.0" ry="3.5" fill="rgba(255,45,70,0.27)" transform="rotate(120.2 1343.1 630.0)"/><ellipse cx="1327.9" cy="655.8" rx="7.0" ry="3.5" fill="rgba(255,45,70,0.24)" transform="rotate(120.9 1327.9 655.8)"/><ellipse cx="1312.3" cy="681.5" rx="7.0" ry="3.5" fill="rgba(255,45,70,0.22)" transform="rotate(121.7 1312.3 681.5)"/><ellipse cx="1296.3" cy="706.9" rx="7.0" ry="3.5" fill="rgba(255,45,70,0.20)" transform="rotate(122.5 1296.3 706.9)"/><ellipse cx="1280.1" cy="732.1" rx="7.0" ry="3.5" fill="rgba(255,45,70,0.17)" transform="rotate(123.2 1280.1 732.1)"/><ellipse cx="1263.5" cy="757.1" rx="7.0" ry="3.5" fill="rgba(255,45,70,0.15)" transform="rotate(124.0 1263.5 757.1)"/><ellipse cx="1246.5" cy="781.8" rx="7.0" ry="3.5" fill="rgba(255,45,70,0.13)" transform="rotate(124.8 1246.5 781.8)"/><ellipse cx="1229.2" cy="806.4" rx="7.0" ry="3.5" fill="rgba(255,45,70,0.11)" transform="rotate(125.5 1229.2 806.4)"/><ellipse cx="1211.6" cy="830.7" rx="7.0" ry="3.5" fill="rgba(255,45,70,0.09)" transform="rotate(126.3 1211.6 830.7)"/><ellipse cx="1193.7" cy="854.7" rx="7.0" ry="3.5" fill="rgba(255,45,70,0.07)" transform="rotate(127.1 1193.7 854.7)"/><ellipse cx="1175.5" cy="878.6" rx="7.0" ry="3.5" fill="rgba(255,45,70,0.05)" transform="rotate(127.8 1175.5 878.6)"/><ellipse cx="1156.9" cy="902.1" rx="7.0" ry="3.5" fill="rgba(255,45,70,0.03)" transform="rotate(128.6 1156.9 902.1)"/><ellipse cx="1475.5" cy="428.9" rx="6.9" ry="3.5" fill="rgba(255,45,70,0.36)" transform="rotate(114.1 1475.5 428.9)"/><ellipse cx="1462.8" cy="456.8" rx="6.9" ry="3.5" fill="rgba(255,45,70,0.36)" transform="rotate(114.9 1462.8 456.8)"/><ellipse cx="1449.8" cy="484.4" rx="6.9" ry="3.5" fill="rgba(255,45,70,0.36)" transform="rotate(115.7 1449.8 484.4)"/><ellipse cx="1436.4" cy="511.9" rx="6.9" ry="3.5" fill="rgba(255,45,70,0.35)" transform="rotate(116.4 1436.4 511.9)"/><ellipse cx="1422.6" cy="539.1" rx="6.9" ry="3.5" fill="rgba(255,45,70,0.35)" transform="rotate(117.2 1422.6 539.1)"/><ellipse cx="1408.4" cy="566.2" rx="6.9" ry="3.5" fill="rgba(255,45,70,0.32)" transform="rotate(118.0 1408.4 566.2)"/><ellipse cx="1393.9" cy="593.1" rx="6.9" ry="3.5" fill="rgba(255,45,70,0.29)" transform="rotate(118.7 1393.9 593.1)"/><ellipse cx="1379.1" cy="619.8" rx="6.9" ry="3.5" fill="rgba(255,45,70,0.27)" transform="rotate(119.5 1379.1 619.8)"/><ellipse cx="1363.8" cy="646.3" rx="6.9" ry="3.5" fill="rgba(255,45,70,0.24)" transform="rotate(120.3 1363.8 646.3)"/><ellipse cx="1348.2" cy="672.6" rx="6.9" ry="3.5" fill="rgba(255,45,70,0.22)" transform="rotate(121.0 1348.2 672.6)"/><ellipse cx="1332.3" cy="698.7" rx="6.9" ry="3.5" fill="rgba(255,45,70,0.19)" transform="rotate(121.8 1332.3 698.7)"/><ellipse cx="1316.0" cy="724.6" rx="6.9" ry="3.5" fill="rgba(255,45,70,0.17)" transform="rotate(122.6 1316.0 724.6)"/><ellipse cx="1299.4" cy="750.2" rx="6.9" ry="3.5" fill="rgba(255,45,70,0.15)" transform="rotate(123.4 1299.4 750.2)"/><ellipse cx="1282.4" cy="775.6" rx="6.9" ry="3.5" fill="rgba(255,45,70,0.13)" transform="rotate(124.1 1282.4 775.6)"/><ellipse cx="1265.1" cy="800.8" rx="6.9" ry="3.5" fill="rgba(255,45,70,0.11)" transform="rotate(124.9 1265.1 800.8)"/><ellipse cx="1247.4" cy="825.8" rx="6.9" ry="3.5" fill="rgba(255,45,70,0.09)" transform="rotate(125.7 1247.4 825.8)"/><ellipse cx="1229.4" cy="850.5" rx="6.9" ry="3.5" fill="rgba(255,45,70,0.07)" transform="rotate(126.4 1229.4 850.5)"/><ellipse cx="1211.1" cy="875.0" rx="6.9" ry="3.5" fill="rgba(255,45,70,0.05)" transform="rotate(127.2 1211.1 875.0)"/><ellipse cx="1192.5" cy="899.2" rx="6.9" ry="3.5" fill="rgba(255,45,70,0.03)" transform="rotate(128.0 1192.5 899.2)"/><ellipse cx="1472.2" cy="497.9" rx="6.9" ry="3.5" fill="rgba(255,45,70,0.34)" transform="rotate(115.7 1472.2 497.9)"/><ellipse cx="1458.5" cy="525.9" rx="6.9" ry="3.5" fill="rgba(255,45,70,0.33)" transform="rotate(116.5 1458.5 525.9)"/><ellipse cx="1444.5" cy="553.7" rx="6.9" ry="3.5" fill="rgba(255,45,70,0.32)" transform="rotate(117.3 1444.5 553.7)"/><ellipse cx="1430.0" cy="581.2" rx="6.9" ry="3.5" fill="rgba(255,45,70,0.29)" transform="rotate(118.0 1430.0 581.2)"/><ellipse cx="1415.2" cy="608.6" rx="6.9" ry="3.5" fill="rgba(255,45,70,0.26)" transform="rotate(118.8 1415.2 608.6)"/><ellipse cx="1400.0" cy="635.8" rx="6.9" ry="3.5" fill="rgba(255,45,70,0.24)" transform="rotate(119.6 1400.0 635.8)"/><ellipse cx="1384.4" cy="662.7" rx="6.9" ry="3.5" fill="rgba(255,45,70,0.22)" transform="rotate(120.4 1384.4 662.7)"/><ellipse cx="1368.5" cy="689.5" rx="6.9" ry="3.5" fill="rgba(255,45,70,0.19)" transform="rotate(121.1 1368.5 689.5)"/><ellipse cx="1352.2" cy="716.0" rx="6.9" ry="3.5" fill="rgba(255,45,70,0.17)" transform="rotate(121.9 1352.2 716.0)"/><ellipse cx="1335.6" cy="742.3" rx="6.9" ry="3.5" fill="rgba(255,45,70,0.15)" transform="rotate(122.7 1335.6 742.3)"/><ellipse cx="1318.6" cy="768.4" rx="6.9" ry="3.5" fill="rgba(255,45,70,0.13)" transform="rotate(123.5 1318.6 768.4)"/><ellipse cx="1301.3" cy="794.3" rx="6.9" ry="3.5" fill="rgba(255,45,70,0.11)" transform="rotate(124.2 1301.3 794.3)"/><ellipse cx="1283.6" cy="819.9" rx="6.9" ry="3.5" fill="rgba(255,45,70,0.09)" transform="rotate(125.0 1283.6 819.9)"/><ellipse cx="1265.5" cy="845.3" rx="6.9" ry="3.5" fill="rgba(255,45,70,0.07)" transform="rotate(125.8 1265.5 845.3)"/><ellipse cx="1247.2" cy="870.4" rx="6.9" ry="3.5" fill="rgba(255,45,70,0.05)" transform="rotate(126.6 1247.2 870.4)"/><ellipse cx="1228.4" cy="895.3" rx="6.9" ry="3.5" fill="rgba(255,45,70,0.03)" transform="rotate(127.3 1228.4 895.3)"/></svg>